<?xml version="1.0" encoding="utf-8"?>
<!-- Generator: Adobe Illustrator 15.0.2, SVG Export Plug-In . SVG Version: 6.00 Build 0)  -->
<!DOCTYPE svg PUBLIC "-//W3C//DTD SVG 1.1//EN" "http://www.w3.org/Graphics/SVG/1.1/DTD/svg11.dtd">
<svg version="1.1" id="Layer_1" xmlns="http://www.w3.org/2000/svg" xmlns:xlink="http://www.w3.org/1999/xlink" x="0px" y="0px"
	 width="360px" height="360px" viewBox="0 0 360 360" enable-background="new 0 0 360 360" xml:space="preserve">
<g>
	<path fill="#BFE6F2" d="M258.627,124.317c0.105,0.133,0.207,0.27,0.312,0.402l32.146-25.521c-1.294-1.631-3.901-4.743-5.279-6.304
		l-30.746,27.149C256.276,121.434,257.467,122.855,258.627,124.317z"/>
	<path fill="#7DD1E8" d="M255.061,120.044l30.746-27.149c-4.479-5.071-8.484-9.085-13.547-13.573l-27.17,30.652
		C248.578,113.087,251.91,116.444,255.061,120.044z"/>
	<path fill="#32C3E1" d="M245.09,109.974l27.17-30.652c-10.127-8.976-19.533-15.453-31.529-21.713l-18.932,36.285
		C230.083,98.202,237.918,103.571,245.09,109.974z"/>
	<path fill="#00B0D8" d="M221.799,93.894l18.932-36.285c-13.844-7.223-25.899-11.505-41.197-14.633l-8.219,40.206
		C201.861,85.286,212.135,88.866,221.799,93.894z"/>
	<path fill="#0086A4" d="M97.524,105.808c27.482-21.817,61.881-28.994,93.791-22.626l8.219-40.206
		C144.635,31.753,92.861,48.022,54.248,88.634l30.493,28.992C88.641,113.433,92.903,109.478,97.524,105.808z"/>
	<path fill="#005C72" d="M291.086,99.198l-32.146,25.521c39.015,49.587,30.645,121.431-18.821,160.701
		c-49.599,39.377-121.727,31.09-161.103-18.509c-35.708-44.978-32.219-108.48,5.726-149.286L54.248,88.634
		c-54.569,57.396-58.425,143.854-9.183,205.88C99,362.45,197.797,373.802,265.733,319.866
		C333.67,265.932,345.021,167.135,291.086,99.198z"/>
</g>
<g>
	<path fill="#0066B3" d="M92.52,191.097h-3.921v-11.763h-3.24v-3.32h10.402v3.32H92.52V191.097z"/>
	<path fill="#0066B3" d="M113.103,183.275c0,4.881-3.501,8.321-8.342,8.321c-4.842,0-8.342-3.44-8.342-8.321
		c0-4.562,4-7.762,8.342-7.762C109.102,175.514,113.103,178.714,113.103,183.275z M100.499,183.295c0,2.601,1.921,4.501,4.262,4.501
		c2.34,0,4.261-1.9,4.261-4.501c0-2.08-1.921-3.98-4.261-3.98C102.42,179.314,100.499,181.215,100.499,183.295z"/>
	<path fill="#0066B3" d="M120.919,191.097h-3.921v-11.763h-3.24v-3.32h10.402v3.32h-3.241V191.097z"/>
	<path fill="#0066B3" d="M128.223,188.477l-1.04,2.62h-4.161l5.802-15.083h4.28l5.682,15.083h-4.181l-0.98-2.62H128.223z
		 M130.963,180.675h-0.04l-1.62,4.801h3.261L130.963,180.675z"/>
	<path fill="#0066B3" d="M143.923,187.776h4.701v3.32h-8.622v-15.083h3.921V187.776z"/>
	<path fill="#0066B3" d="M169.304,191.097h-4.881l-3.701-5.801h-0.04v5.801h-3.921v-15.083h5.861c2.98,0,5.241,1.42,5.241,4.641
		c0,2.081-1.16,3.881-3.301,4.261L169.304,191.097z M160.682,182.774h0.38c1.28,0,2.721-0.239,2.721-1.88s-1.44-1.881-2.721-1.881
		h-0.38V182.774z"/>
	<path fill="#0066B3" d="M174.282,179.334v2.521h4.421v3.321h-4.421v2.601h4.661v3.32h-8.582v-15.083h8.582v3.32H174.282z"/>
	<path fill="#0066B3" d="M187.682,185.176l3.661-9.162h4.261l-6.441,15.083h-3.041l-6.341-15.083h4.261L187.682,185.176z"/>
	<path fill="#0066B3" d="M200.501,179.334v2.521h4.421v3.321h-4.421v2.601h4.661v3.32h-8.582v-15.083h8.582v3.32H200.501z"/>
	<path fill="#0066B3" d="M207.58,176.014h3.921l7.182,9.222h0.04v-9.222h3.921v15.083h-3.921l-7.182-9.242h-0.04v9.242h-3.921
		V176.014z"/>
	<path fill="#0066B3" d="M238.283,176.014v8.481c0,1.94-0.08,3.861-1.58,5.321c-1.261,1.24-3.241,1.681-5.002,1.681
		c-1.76,0-3.74-0.44-5.001-1.681c-1.5-1.46-1.58-3.381-1.58-5.321v-8.481h3.921v7.941c0,1.961,0.14,4.101,2.66,4.101
		s2.661-2.14,2.661-4.101v-7.941H238.283z"/>
	<path fill="#0066B3" d="M244.681,179.334v2.521h4.421v3.321h-4.421v2.601h4.661v3.32h-8.582v-15.083h8.582v3.32H244.681z"/>
	<path fill="#0066B3" d="M117.001,204.076c-1.061-0.442-2.063-1.014-2.063-2.308c0-1.213,0.909-2.04,2.063-2.203v-1.201h0.77v1.201
		c0.792,0.104,1.492,0.629,1.842,1.328l-0.77,0.502c-0.233-0.408-0.583-0.805-1.072-0.897v2.879
		c1.154,0.489,2.168,1.084,2.168,2.483c0,1.294-0.909,2.378-2.168,2.635v1.282h-0.77v-1.213c-1.259-0.058-2.297-1.037-2.519-2.262
		l0.944-0.268c0.105,0.805,0.746,1.539,1.574,1.597V204.076z M117.001,200.486c-0.618,0.116-1.084,0.676-1.084,1.317
		c0,0.641,0.571,1.002,1.084,1.235V200.486z M117.771,207.551c0.734-0.245,1.188-0.897,1.188-1.667c0-0.746-0.582-1.166-1.188-1.457
		V207.551z"/>
	<path fill="#0066B3" d="M123.381,201.574l0.88-1.561h3.301v15.083h-1.681v-13.522H123.381z"/>
	<path fill="#0066B3" d="M141.922,203.954c0,1.32-0.68,2.641-1.84,3.301c1.42,0.641,2.221,2.08,2.221,3.621
		c0,2.601-2.001,4.48-4.602,4.48s-4.601-1.88-4.601-4.48c0-1.541,0.8-2.98,2.221-3.621c-1.161-0.66-1.841-1.98-1.841-3.301
		c0-2.42,1.86-4.201,4.221-4.201S141.922,201.534,141.922,203.954z M134.78,210.896c0,1.601,1.28,2.901,2.921,2.901
		s2.921-1.301,2.921-2.901c0-1.6-1.28-2.9-2.921-2.9S134.78,209.296,134.78,210.896z M135.081,203.914
		c0,1.461,1.18,2.641,2.62,2.641s2.621-1.18,2.621-2.641c0-1.44-1.181-2.601-2.621-2.601S135.081,202.474,135.081,203.914z"/>
	<path fill="#0066B3" d="M147.36,213.416l-2.261,5.121l-1.08-0.439l1.86-5.201L147.36,213.416z"/>
	<path fill="#0066B3" d="M158.602,213.536v1.561h-9.762l7.062-8.342c0.6-0.72,1.021-1.54,1.021-2.521
		c0-1.681-1.36-2.921-3.001-2.921c-1.82,0-3.001,1.341-3.041,3.101h-1.68c0.06-2.641,2-4.661,4.66-4.661
		c2.521,0,4.741,1.841,4.741,4.461c0,1.221-0.359,2.281-1.14,3.182l-5.222,6.141H158.602z"/>
	<path fill="#0066B3" d="M160.36,201.574v-1.561h11.122l-10.122,15.343l-1.32-0.78l8.562-13.002H160.36z"/>
	<path fill="#0066B3" d="M176.301,201.574l-0.98,3.221l0.9-0.08c2.98,0,5.021,2.34,5.021,5.261c0,3.121-2.46,5.381-5.541,5.381
		c-1.98,0-3.621-1-4.621-2.7l1.341-0.96c0.68,1.22,1.9,2.101,3.341,2.101c2.22,0,3.801-1.661,3.801-3.861
		c0-2.141-1.661-3.661-3.762-3.661c-1.04,0-2,0.4-2.86,0.961l2.181-7.222h6.001v1.561H176.301z"/>
	<path fill="#0066B3" d="M186.48,213.416l-2.261,5.121l-1.08-0.439l1.86-5.201L186.48,213.416z"/>
	<path fill="#0066B3" d="M198.702,207.575c0,3.721-1.96,7.781-5.401,7.781c-3.44,0-5.401-4.061-5.401-7.781
		c0-3.101,1.581-7.822,5.401-7.822C197.122,199.753,198.702,204.475,198.702,207.575z M189.58,207.655
		c0.04,2.12,0.94,6.142,3.721,6.142c2.781,0,3.681-4.021,3.721-6.142c0.04-2.141-0.88-6.342-3.721-6.342
		S189.54,205.515,189.58,207.655z"/>
	<path fill="#0066B3" d="M210.021,207.575c0,3.721-1.961,7.781-5.401,7.781s-5.401-4.061-5.401-7.781
		c0-3.101,1.581-7.822,5.401-7.822C208.441,199.753,210.021,204.475,210.021,207.575z M200.899,207.655
		c0.04,2.12,0.94,6.142,3.721,6.142c2.781,0,3.681-4.021,3.721-6.142c0.04-2.141-0.88-6.342-3.721-6.342
		S200.859,205.515,200.899,207.655z"/>
	<path fill="#0066B3" d="M221.342,207.575c0,3.721-1.961,7.781-5.401,7.781s-5.401-4.061-5.401-7.781
		c0-3.101,1.581-7.822,5.401-7.822C219.762,199.753,221.342,204.475,221.342,207.575z M212.22,207.655
		c0.04,2.12,0.94,6.142,3.721,6.142c2.781,0,3.681-4.021,3.721-6.142c0.04-2.141-0.88-6.342-3.721-6.342
		S212.18,205.515,212.22,207.655z"/>
</g>
<g>
	<path fill="#FFFFFF" d="M111.834,309.073c-0.247-0.827-0.809-1.547-1.582-1.948c-1.492-0.774-3.373-0.104-4.137,1.37
		c-0.765,1.474-0.221,3.401,1.28,4.181c0.755,0.392,1.676,0.419,2.485,0.162l-0.479,0.924c-0.794,0.118-1.629-0.011-2.339-0.38
		c-1.892-0.981-2.693-3.347-1.707-5.247c0.995-1.919,3.383-2.675,5.301-1.68c0.746,0.388,1.293,0.941,1.657,1.694L111.834,309.073z"
		/>
	<path fill="#FFFFFF" d="M118.544,314.451c-0.884,1.98-3.209,2.825-5.171,1.949s-2.885-3.171-2.001-5.151
		c0.88-1.971,3.217-2.843,5.179-1.967S119.424,312.48,118.544,314.451z M112.143,311.582c-0.692,1.552-0.012,3.409,1.549,4.106
		c1.56,0.696,3.398-0.037,4.09-1.588c0.697-1.561,0.03-3.401-1.548-4.106C114.655,309.29,112.839,310.022,112.143,311.582z"/>
	<path fill="#FFFFFF" d="M123.215,313.75c-0.093-0.593-0.32-1.002-0.917-1.232c-0.625-0.241-1.338-0.002-1.586,0.641
		c-0.234,0.606,0.282,1.127,0.675,1.525l0.387,0.385c0.759,0.754,1.356,1.51,0.924,2.629c-0.475,1.23-1.827,1.79-3.048,1.318
		c-1.128-0.436-1.687-1.487-1.489-2.664l0.847,0.081c-0.175,0.757,0.148,1.557,0.904,1.849s1.668-0.02,1.975-0.812
		c0.317-0.82-0.219-1.349-0.756-1.898l-0.357-0.353c-0.676-0.689-1.223-1.383-0.834-2.39c0.421-1.091,1.614-1.434,2.659-1.03
		c0.783,0.303,1.29,0.959,1.396,1.793L123.215,313.75z"/>
	<path fill="#FFFFFF" d="M124.654,320.704l-0.793-0.274l2.208-6.385l-1.719-0.595l0.255-0.736l4.25,1.47l-0.254,0.736l-1.738-0.601
		L124.654,320.704z"/>
	<path fill="#FFFFFF" d="M137.68,320.617c-0.566,2.096-2.734,3.293-4.811,2.731c-2.077-0.561-3.347-2.687-2.781-4.782
		c0.563-2.087,2.739-3.312,4.816-2.752C136.98,316.376,138.243,318.53,137.68,320.617z M130.902,318.775
		c-0.444,1.643,0.519,3.374,2.17,3.82s3.355-0.565,3.799-2.208c0.446-1.651-0.5-3.368-2.17-3.819
		C133.029,316.117,131.348,317.124,130.902,318.775z"/>
	<path fill="#FFFFFF" d="M139.823,317.981l-0.479,2.188l2.451,0.536l-0.167,0.762l-2.451-0.536l-0.799,3.652l-0.82-0.18l1.611-7.363
		l3.35,0.733l-0.167,0.762L139.823,317.981z"/>
	<path fill="#FFFFFF" d="M152.055,323.154c-0.131,1.012-0.364,1.826-1.165,2.515c-0.8,0.689-1.907,0.988-2.945,0.833
		c-2.096-0.313-3.576-2.314-3.262-4.41c0.319-2.136,2.32-3.616,4.466-3.295c1.305,0.195,2.276,0.938,2.913,2.084l-0.688,0.474
		c-0.491-0.974-1.253-1.623-2.351-1.787c-1.701-0.255-3.26,0.978-3.512,2.658c-0.119,0.791,0.085,1.59,0.555,2.236
		c0.462,0.625,1.193,1.149,1.974,1.266c1.295,0.194,2.802-0.551,3.009-1.935l-2.215-0.332l0.116-0.771L152.055,323.154z"/>
	<path fill="#FFFFFF" d="M160.246,323.921c-0.189,2.162-2.112,3.721-4.254,3.533c-2.142-0.187-3.766-2.055-3.578-4.218
		c0.188-2.151,2.114-3.74,4.256-3.554C158.812,319.87,160.434,321.769,160.246,323.921z M153.252,323.3
		c-0.148,1.694,1.104,3.229,2.808,3.378c1.704,0.148,3.202-1.146,3.35-2.841c0.149-1.703-1.083-3.227-2.808-3.377
		C154.878,320.31,153.401,321.596,153.252,323.3z"/>
	<path fill="#FFFFFF" d="M168.412,324.15c-0.056,2.169-1.88,3.842-4.029,3.786c-2.149-0.057-3.883-1.821-3.827-3.99
		c0.056-2.159,1.88-3.861,4.029-3.806C166.734,320.196,168.468,321.991,168.412,324.15z M161.396,323.958
		c-0.044,1.699,1.298,3.154,3.008,3.198c1.709,0.045,3.125-1.339,3.169-3.038c0.044-1.709-1.278-3.153-3.007-3.198
		S161.44,322.249,161.396,323.958z"/>
	<path fill="#FFFFFF" d="M168.94,320.331l1.419-0.041c1.13-0.033,2.054,0.09,2.965,0.824c0.881,0.714,1.3,1.713,1.333,2.832
		c0.031,1.1-0.34,2.08-1.148,2.844c-0.876,0.826-1.771,1.002-2.95,1.036l-1.399,0.04L168.94,320.331z M170.586,327.045
		c0.919-0.026,1.685-0.179,2.355-0.849c0.604-0.598,0.9-1.396,0.876-2.236c-0.025-0.859-0.379-1.679-1.045-2.229
		c-0.708-0.59-1.471-0.688-2.36-0.662l-0.609,0.018l0.173,5.977L170.586,327.045z"/>
	<path fill="#FFFFFF" d="M178.621,321.332c-0.337-0.497-0.719-0.771-1.357-0.724c-0.668,0.05-1.212,0.571-1.161,1.26
		c0.047,0.648,0.738,0.898,1.264,1.091l0.515,0.183c1.01,0.357,1.874,0.786,1.962,1.983c0.097,1.317-0.887,2.402-2.194,2.499
		c-1.208,0.088-2.163-0.624-2.488-1.774l0.802-0.289c0.166,0.76,0.801,1.346,1.609,1.286s1.501-0.732,1.439-1.58
		c-0.064-0.879-0.775-1.127-1.497-1.396l-0.474-0.166c-0.908-0.335-1.699-0.728-1.778-1.806c-0.086-1.168,0.848-1.988,1.965-2.07
		c0.839-0.062,1.578,0.315,2.032,1.024L178.621,321.332z"/>
	<path fill="#FFFFFF" d="M183.501,320.135l0.287,2.222l2.489-0.321l0.1,0.773l-2.489,0.322l0.479,3.709l-0.833,0.107l-0.967-7.479
		l3.402-0.439l0.1,0.773L183.501,320.135z"/>
	<path fill="#FFFFFF" d="M194.699,321.374c0.381,2.136-1.069,4.141-3.186,4.519c-2.116,0.377-4.17-1.004-4.551-3.14
		c-0.379-2.126,1.066-4.16,3.182-4.537C192.261,317.838,194.32,319.248,194.699,321.374z M187.788,322.596
		c0.299,1.674,1.906,2.829,3.589,2.528c1.683-0.3,2.792-1.939,2.493-3.612c-0.3-1.683-1.886-2.832-3.588-2.528
		C188.579,319.287,187.488,320.913,187.788,322.596z"/>
	<path fill="#FFFFFF" d="M197.026,324.656l-0.817,0.189l-1.703-7.34l1.062-0.246c1.392-0.323,2.772-0.254,3.156,1.401
		c0.262,1.129-0.264,2.093-1.37,2.452l3.1,2.748l-1.003,0.232l-2.967-2.707l-0.204,0.047L197.026,324.656z M196.111,320.714
		l0.254-0.059c0.925-0.215,1.818-0.607,1.554-1.746c-0.279-1.207-1.192-1.118-2.176-0.891l-0.243,0.057L196.111,320.714z"/>
	<path fill="#FFFFFF" d="M204.555,322.747l-0.807,0.237l-2.129-7.236l1.047-0.308c1.372-0.404,2.756-0.415,3.235,1.217
		c0.328,1.113-0.142,2.106-1.227,2.53l3.258,2.566l-0.988,0.291l-3.123-2.533l-0.201,0.059L204.555,322.747z M203.411,318.86
		l0.249-0.073c0.912-0.269,1.782-0.712,1.452-1.835c-0.35-1.19-1.257-1.049-2.227-0.764l-0.24,0.071L203.411,318.86z"/>
	<path fill="#FFFFFF" d="M206.22,314.379l3.705-1.247l0.249,0.739l-2.909,0.979l0.714,2.123l2.824-0.95l0.249,0.738l-2.824,0.951
		l0.944,2.805l2.909-0.979l0.248,0.739l-3.705,1.247L206.22,314.379z"/>
	<path fill="#FFFFFF" d="M214.431,313.005c-0.466-0.38-0.909-0.532-1.508-0.305c-0.627,0.238-0.998,0.894-0.753,1.539
		c0.23,0.607,0.964,0.65,1.523,0.685l0.546,0.027c1.069,0.054,2.02,0.217,2.446,1.34c0.47,1.234-0.163,2.556-1.389,3.021
		c-1.132,0.431-2.251,0.021-2.891-0.988l0.685-0.507c0.377,0.682,1.152,1.061,1.91,0.773c0.758-0.288,1.229-1.132,0.928-1.927
		c-0.313-0.823-1.065-0.858-1.834-0.908l-0.501-0.024c-0.966-0.061-1.836-0.212-2.221-1.222c-0.416-1.095,0.244-2.147,1.291-2.546
		c0.786-0.299,1.603-0.149,2.24,0.401L214.431,313.005z"/>
	<path fill="#FFFFFF" d="M218.528,315.594l0.015,2.323l-0.844,0.365l0.058-8.626l6.243,5.9l-0.854,0.368l-1.665-1.609
		L218.528,315.594z M218.516,311.462l0.016,3.281l2.338-1.012L218.516,311.462z"/>
	<path fill="#FFFFFF" d="M224.833,314.251l1.875-0.898l0.337,0.704l-2.633,1.261l-3.256-6.8l0.757-0.362L224.833,314.251z"/>
	<path fill="#FFFFFF" d="M224.016,307.149l3.473-1.796l0.357,0.692l-2.726,1.41l1.028,1.989l2.646-1.368l0.358,0.692l-2.646,1.368
		l1.359,2.629l2.727-1.41l0.358,0.693l-3.473,1.796L224.016,307.149z"/>
</g>
<g>
	<path fill="#FFFFFF" d="M151.172,335.679v-2.657h9.908l-6.931,12.069h-3.441l5.506-9.412H151.172z"/>
	<path fill="#FFFFFF" d="M161.38,336.495c0.128-1.265,0.64-2.225,1.409-2.913c0.768-0.688,1.841-1.04,3.073-1.04
		c2.161,0,3.857,1.248,3.857,3.505c0,0.961-0.384,1.985-1.265,2.481c1.28,0.336,1.969,1.809,1.969,3.041
		c0,2.642-2.289,4.002-4.689,4.002c-1.377,0-2.625-0.368-3.602-1.36c-0.72-0.736-1.409-1.985-1.376-3.042h3.201
		c0,0.961,0.688,1.713,1.68,1.713c0.961,0,1.681-0.641,1.681-1.616c0-0.913-0.784-1.617-1.664-1.617
		c-0.192,0-0.368,0.048-0.544,0.097v-2.098h0.319c0.801,0,1.377-0.496,1.377-1.328c0-0.736-0.528-1.217-1.232-1.217
		c-0.801,0-1.297,0.608-1.281,1.393H161.38z"/>
	<path fill="#FFFFFF" d="M177.286,335.791c0,1.953-1.456,2.978-3.297,2.978s-3.298-1.024-3.298-2.978
		c0-1.921,1.505-2.929,3.298-2.929S177.286,333.87,177.286,335.791z M172.628,335.823c0,0.752,0.608,1.345,1.36,1.345
		s1.36-0.593,1.36-1.345c0-0.753-0.608-1.36-1.36-1.36S172.628,335.07,172.628,335.823z M182.473,333.021l-7.011,12.069h-1.568
		l7.011-12.069H182.473z M185.689,342.273c0,1.953-1.457,2.978-3.297,2.978c-1.841,0-3.297-1.024-3.297-2.978
		c0-1.921,1.504-2.929,3.297-2.929C184.186,339.345,185.689,340.353,185.689,342.273z M181.031,342.306
		c0,0.752,0.609,1.345,1.361,1.345s1.359-0.593,1.359-1.345s-0.607-1.36-1.359-1.36S181.031,341.554,181.031,342.306z"/>
</g>
<g>
	<path fill="#FFFFFF" d="M124.113,68.677V66.02h4.866v12.069h-3.137v-9.412H124.113z"/>
	<path fill="#FFFFFF" d="M140.163,66.02l-3.425,4.082l0.031,0.032c0.545-0.24,1.057-0.368,1.681-0.368
		c2.369,0,3.874,2.032,3.874,4.241c0,2.962-2.433,4.562-5.187,4.562c-1.168,0-2.513-0.305-3.441-1.041
		c-0.96-0.8-1.617-2.064-1.617-3.313c0-1.744,0.896-3.441,1.937-4.802l2.594-3.394H140.163z M139.058,74.104
		c0-1.089-0.832-1.969-1.937-1.969c-1.089,0-1.985,0.88-1.985,1.969c0,1.104,0.896,2.001,1.985,2.001
		C138.226,76.104,139.058,75.208,139.058,74.104z"/>
	<path fill="#FFFFFF" d="M148.786,68.789c0,1.953-1.456,2.978-3.297,2.978s-3.298-1.024-3.298-2.978
		c0-1.921,1.505-2.929,3.298-2.929S148.786,66.868,148.786,68.789z M144.128,68.821c0,0.752,0.608,1.345,1.36,1.345
		s1.36-0.593,1.36-1.345c0-0.753-0.608-1.36-1.36-1.36S144.128,68.068,144.128,68.821z M153.972,66.02l-7.011,12.069h-1.568
		l7.011-12.069H153.972z M157.189,75.271c0,1.953-1.456,2.978-3.297,2.978s-3.297-1.024-3.297-2.978
		c0-1.921,1.504-2.929,3.297-2.929S157.189,73.351,157.189,75.271z M152.532,75.304c0,0.752,0.608,1.345,1.36,1.345
		s1.36-0.593,1.36-1.345s-0.608-1.36-1.36-1.36S152.532,74.552,152.532,75.304z"/>
</g>
<g>
	<path fill="#FFFFFF" d="M207.385,68.303v2.101h-1.273v2.186h-2.55v-2.186h-5.127v-1.751l4.076-6.625h3.601v6.275H207.385z
		 M203.562,64.24h-0.028l-2.465,4.062h2.493V64.24z"/>
	<path fill="#FFFFFF" d="M211.162,71.23c0,0.896-0.729,1.639-1.639,1.639s-1.639-0.742-1.639-1.639c0-0.911,0.729-1.64,1.639-1.64
		S211.162,70.319,211.162,71.23z"/>
	<path fill="#FFFFFF" d="M215.475,64.353l-0.182,1.204l0.867-0.069c2.158-0.168,3.74,1.597,3.74,3.782
		c0,1.106-0.49,2.143-1.357,2.857c-0.842,0.672-2.031,0.882-3.082,0.882c-1.205,0-2.424-0.294-3.446-0.952l0.406-2.592
		c0.813,0.729,1.849,1.219,2.942,1.219c0.867,0,1.68-0.63,1.68-1.555c0-1.274-1.219-1.807-2.311-1.807
		c-0.701,0-1.387,0.14-2.018,0.434l0.924-5.729h5.492v2.325H215.475z"/>
	<path fill="#FFFFFF" d="M226.199,64.45c0,1.709-1.275,2.605-2.887,2.605c-1.609,0-2.885-0.896-2.885-2.605
		c0-1.681,1.316-2.563,2.885-2.563C224.883,61.887,226.199,62.77,226.199,64.45z M222.123,64.479c0,0.658,0.531,1.177,1.189,1.177
		c0.66,0,1.191-0.519,1.191-1.177s-0.531-1.19-1.191-1.19C222.654,63.288,222.123,63.82,222.123,64.479z M230.738,62.027
		l-6.137,10.562h-1.373l6.137-10.562H230.738z M233.553,70.124c0,1.708-1.275,2.604-2.885,2.604c-1.611,0-2.887-0.896-2.887-2.604
		c0-1.682,1.316-2.563,2.887-2.563C232.236,67.561,233.553,68.442,233.553,70.124z M229.477,70.151c0,0.658,0.533,1.177,1.191,1.177
		s1.189-0.519,1.189-1.177s-0.531-1.19-1.189-1.19S229.477,69.493,229.477,70.151z"/>
</g>
<g>
	<path fill="#FFFFFF" d="M244.91,86.303v2.101h-1.275v2.186h-2.549v-2.186h-5.127v-1.751l4.076-6.625h3.6v6.275H244.91z
		 M241.086,82.24h-0.029l-2.465,4.062h2.494V82.24z"/>
	<path fill="#FFFFFF" d="M250.676,82.45c0,1.709-1.275,2.605-2.887,2.605c-1.609,0-2.885-0.896-2.885-2.605
		c0-1.681,1.316-2.563,2.885-2.563C249.359,79.887,250.676,80.77,250.676,82.45z M246.6,82.479c0,0.658,0.531,1.177,1.189,1.177
		c0.66,0,1.191-0.519,1.191-1.177s-0.531-1.19-1.191-1.19C247.131,81.288,246.6,81.82,246.6,82.479z M255.215,80.027l-6.137,10.562
		h-1.373l6.137-10.562H255.215z M258.029,88.124c0,1.708-1.275,2.604-2.885,2.604c-1.611,0-2.887-0.896-2.887-2.604
		c0-1.682,1.316-2.563,2.887-2.563C256.713,85.561,258.029,86.442,258.029,88.124z M253.953,88.151c0,0.658,0.533,1.177,1.191,1.177
		s1.189-0.519,1.189-1.177s-0.531-1.19-1.189-1.19S253.953,87.493,253.953,88.151z"/>
</g>
<g>
	<g>
		<path fill="#FFFFFF" d="M263.344,102.264v1.991h-7.269l3.694-4.018c0.527-0.576,1.031-1.392,1.031-2.219
			c0-0.576-0.408-1.176-1.031-1.176c-0.637,0-0.984,0.492-0.984,1.104c0,0.12,0.012,0.252,0.036,0.384h-2.591
			c0.072-2.075,1.392-3.478,3.526-3.478c1.896,0,3.489,1.247,3.489,3.214c0,1.295-0.539,2.051-1.463,2.891l-1.402,1.307H263.344z"/>
		<path fill="#FFFFFF" d="M268.48,97.288c0,1.463-1.092,2.23-2.471,2.23s-2.471-0.768-2.471-2.23c0-1.439,1.127-2.195,2.471-2.195
			S268.48,95.848,268.48,97.288z M264.99,97.311c0,0.563,0.455,1.008,1.02,1.008s1.02-0.444,1.02-1.008s-0.455-1.02-1.02-1.02
			S264.99,96.748,264.99,97.311z M272.365,95.212l-5.252,9.043h-1.176l5.254-9.043H272.365z M274.777,102.144
			c0,1.464-1.092,2.231-2.471,2.231s-2.471-0.768-2.471-2.231c0-1.438,1.127-2.194,2.471-2.194
			C273.648,99.95,274.777,100.706,274.777,102.144z M271.287,102.168c0,0.563,0.455,1.008,1.02,1.008c0.562,0,1.02-0.444,1.02-1.008
			s-0.457-1.02-1.02-1.02C271.742,101.149,271.287,101.605,271.287,102.168z"/>
	</g>
</g>
<g>
	<g>
		<path fill="#FFFFFF" d="M95.458,74.617l-0.733,0.41l-3.682-6.581l1.082-0.605c0.567-0.317,1.162-0.627,1.828-0.564
			c0.679,0.067,1.254,0.501,1.582,1.086c0.298,0.532,0.382,1.195,0.163,1.765c-0.24,0.616-0.768,1.003-1.318,1.311l-0.532,0.298
			L95.458,74.617z M93.466,71.056l0.489-0.273c0.812-0.454,1.364-1.084,0.837-2.027c-0.601-1.074-1.508-0.668-2.364-0.19
			l-0.271,0.151L93.466,71.056z"/>
		<path fill="#FFFFFF" d="M97.936,70.812l0.174,2.318l-0.817,0.423l-0.538-8.614l6.639,5.458l-0.826,0.427l-1.773-1.492
			L97.936,70.812z M97.638,66.688l0.241,3.274l2.265-1.171L97.638,66.688z"/>
		<path fill="#FFFFFF" d="M98.882,64.221l0.876-0.417l3.18,2.209l0.289-3.861l0.876-0.417l-0.381,4.947l1.395,2.927l-0.759,0.361
			l-1.395-2.927L98.882,64.221z"/>
		<path fill="#FFFFFF" d="M108.361,68.119l-0.771,0.334l-3.002-6.915l1-0.434c1.311-0.569,2.682-0.75,3.359,0.808
			c0.462,1.064,0.119,2.106-0.905,2.66l3.547,2.144l-0.944,0.41L107.236,65l-0.193,0.083L108.361,68.119z M106.749,64.405
			l0.238-0.104c0.871-0.378,1.68-0.926,1.214-1.999c-0.494-1.137-1.376-0.885-2.302-0.482l-0.229,0.1L106.749,64.405z"/>
		<path fill="#FFFFFF" d="M117.67,60.33c0.775,2.027-0.273,4.269-2.281,5.036s-4.284-0.203-5.059-2.229
			c-0.771-2.017,0.266-4.287,2.274-5.055C114.612,57.314,116.899,58.313,117.67,60.33z M111.111,62.827
			c0.607,1.587,2.403,2.421,4,1.81c1.597-0.61,2.378-2.429,1.771-4.017c-0.611-1.597-2.384-2.428-4-1.811
			C111.267,59.428,110.5,61.23,111.111,62.827z"/>
		<path fill="#FFFFFF" d="M120.122,62.686l1.971-0.667l0.25,0.739l-2.767,0.936l-2.416-7.145l0.796-0.269L120.122,62.686z"/>
		<path fill="#FFFFFF" d="M123.19,61.675l1.983-0.625l0.235,0.744l-2.785,0.878l-2.266-7.19l0.801-0.253L123.19,61.675z"/>
		<path fill="#FFFFFF" d="M128.063,52.774l-1.908,10.433l-0.707-0.111l1.898-10.43L128.063,52.774z"/>
		<path fill="#FFFFFF" d="M128.823,53.012l1.203-0.295c1.33-0.326,2.565-0.114,2.931,1.38c0.146,0.592,0.046,1.151-0.368,1.603
			c0.926-0.001,1.633,0.659,1.847,1.532c0.357,1.456-0.674,2.326-2.12,2.681l-1.699,0.417L128.823,53.012z M130.428,56.034
			l0.311-0.076c0.922-0.226,1.682-0.526,1.403-1.661c-0.271-1.106-0.999-1.052-1.999-0.806l-0.32,0.079L130.428,56.034z
			 M131.247,59.372l0.815-0.2c0.913-0.224,1.818-0.683,1.544-1.798c-0.278-1.136-1.406-1.034-2.298-0.815l-0.708,0.174
			L131.247,59.372z"/>
		<path fill="#FFFFFF" d="M134.054,51.747l3.825-0.806l0.161,0.763l-3.003,0.632l0.461,2.191l2.915-0.614l0.161,0.763l-2.915,0.614
			l0.61,2.896l3.003-0.633l0.161,0.763l-3.825,0.805L134.054,51.747z"/>
		<path fill="#FFFFFF" d="M139.025,50.364l6.811,5.122l-0.954-5.766l0.83-0.137l1.286,7.78l-6.809-5.112l0.949,5.736l-0.829,0.137
			L139.025,50.364z"/>
		<path fill="#FFFFFF" d="M147.01,49.421l3.884-0.478l0.095,0.775l-3.05,0.375l0.273,2.225l2.96-0.364l0.095,0.774l-2.96,0.364
			l0.361,2.94l3.05-0.375l0.095,0.775l-3.884,0.477L147.01,49.421z"/>
		<path fill="#FFFFFF" d="M152.902,49.537l0.205,2.232l2.501-0.229l0.072,0.777l-2.501,0.23l0.342,3.727l-0.837,0.077l-0.69-7.513
			l3.417-0.314l0.072,0.777L152.902,49.537z"/>
		<path fill="#FFFFFF" d="M157.761,55.926l-0.838,0.059l-0.529-7.524l0.838-0.059L157.761,55.926z"/>
		<path fill="#FFFFFF" d="M160.764,55.752l-0.839,0.042l-0.34-6.756l-1.819,0.092l-0.04-0.78l4.498-0.227l0.04,0.78l-1.839,0.092
			L160.764,55.752z"/>
		<path fill="#FFFFFF" d="M166.185,49.519c-0.31-0.514-0.676-0.807-1.315-0.794c-0.669,0.013-1.24,0.504-1.226,1.194
			c0.013,0.649,0.688,0.936,1.203,1.156l0.504,0.21c0.988,0.41,1.827,0.884,1.851,2.083c0.026,1.319-1.013,2.35-2.323,2.375
			c-1.209,0.024-2.124-0.737-2.387-1.902l0.815-0.246c0.125,0.768,0.728,1.386,1.537,1.37s1.537-0.65,1.52-1.5
			c-0.018-0.879-0.713-1.166-1.419-1.472l-0.463-0.191c-0.888-0.382-1.656-0.817-1.678-1.896c-0.023-1.169,0.952-1.938,2.071-1.96
			c0.84-0.017,1.558,0.399,1.972,1.13L166.185,49.519z"/>
	</g>
</g>
<polyline fill="none" stroke="#005C72" stroke-linecap="round" stroke-linejoin="round" stroke-miterlimit="10" points="
	220.193,49.089 220.193,38.423 234.693,23.923 "/>
<polyline fill="none" stroke="#005C72" stroke-linecap="round" stroke-linejoin="round" stroke-miterlimit="10" points="
	259.193,69.755 259.193,59.089 273.693,44.589 "/>
<g>
	<path fill="#005C72" d="M225.16,8.381c-0.479-0.496-1.144-0.799-1.839-0.799c-1.344,0-2.431,1.167-2.431,2.495
		c0,1.327,1.096,2.495,2.446,2.495c0.68,0,1.344-0.32,1.823-0.8v0.832c-0.52,0.376-1.159,0.592-1.799,0.592
		c-1.703,0-3.143-1.383-3.143-3.094c0-1.727,1.415-3.143,3.143-3.143c0.672,0,1.263,0.192,1.799,0.592V8.381z"/>
	<path fill="#005C72" d="M226.802,11.38l-0.728,1.711h-0.735l2.782-6.316l2.711,6.316h-0.743l-0.712-1.711H226.802z M228.105,8.341
		l-1.031,2.415h2.039L228.105,8.341z"/>
	<path fill="#005C72" d="M231.875,6.718l2.19,5.061l2.199-5.061l1.223,6.373H236.8l-0.775-4.078h-0.016l-1.943,4.326l-1.935-4.326
		h-0.017l-0.775,4.078h-0.688L231.875,6.718z"/>
	<path fill="#005C72" d="M238.53,13.091h-0.672V7.062h0.992c0.52,0,1.055,0.016,1.495,0.32c0.447,0.312,0.679,0.84,0.679,1.375
		c0,0.488-0.199,0.983-0.575,1.295c-0.408,0.335-0.928,0.399-1.432,0.399h-0.487V13.091z M238.53,9.829h0.447
		c0.744,0,1.376-0.224,1.376-1.087c0-0.983-0.792-1.056-1.575-1.056h-0.248V9.829z"/>
	<path fill="#005C72" d="M242.139,10.652c0,0.448-0.017,0.959,0.264,1.343c0.264,0.368,0.775,0.576,1.215,0.576
		c0.432,0,0.903-0.2,1.184-0.536c0.32-0.384,0.296-0.911,0.296-1.383v-3.59h0.672v3.774c0,0.656-0.048,1.175-0.528,1.671
		c-0.415,0.448-1.015,0.688-1.623,0.688c-0.567,0-1.151-0.216-1.559-0.616c-0.528-0.504-0.592-1.056-0.592-1.743V7.062h0.672V10.652
		z"/>
	<path fill="#005C72" d="M249.297,8.237c-0.239-0.416-0.527-0.655-1.039-0.655c-0.536,0-0.999,0.384-0.999,0.936
		c0,0.52,0.535,0.759,0.943,0.943l0.399,0.176c0.783,0.344,1.447,0.735,1.447,1.695c0,1.055-0.848,1.863-1.895,1.863
		c-0.968,0-1.688-0.624-1.88-1.559l0.656-0.184c0.088,0.616,0.56,1.12,1.207,1.12s1.239-0.496,1.239-1.176
		c0-0.703-0.552-0.943-1.111-1.199l-0.367-0.16c-0.704-0.32-1.312-0.68-1.312-1.543c0-0.936,0.791-1.535,1.687-1.535
		c0.672,0,1.239,0.344,1.56,0.936L249.297,8.237z"/>
	<path fill="#005C72" d="M211.653,19.38l-0.728,1.711h-0.735l2.782-6.316l2.711,6.316h-0.743l-0.712-1.711H211.653z M212.957,16.341
		l-1.031,2.415h2.039L212.957,16.341z"/>
	<path fill="#005C72" d="M218.677,16.237c-0.239-0.416-0.527-0.655-1.039-0.655c-0.536,0-0.999,0.384-0.999,0.936
		c0,0.52,0.535,0.759,0.943,0.943l0.399,0.176c0.783,0.344,1.447,0.735,1.447,1.695c0,1.055-0.848,1.863-1.895,1.863
		c-0.968,0-1.688-0.624-1.879-1.559l0.655-0.184c0.088,0.616,0.56,1.12,1.207,1.12s1.239-0.496,1.239-1.176
		c0-0.703-0.552-0.943-1.111-1.199l-0.367-0.16c-0.704-0.32-1.312-0.68-1.312-1.543c0-0.936,0.791-1.535,1.687-1.535
		c0.672,0,1.239,0.344,1.56,0.936L218.677,16.237z"/>
	<path fill="#005C72" d="M222.748,16.237c-0.239-0.416-0.527-0.655-1.039-0.655c-0.536,0-0.999,0.384-0.999,0.936
		c0,0.52,0.535,0.759,0.943,0.943l0.399,0.176c0.783,0.344,1.447,0.735,1.447,1.695c0,1.055-0.848,1.863-1.895,1.863
		c-0.968,0-1.688-0.624-1.88-1.559l0.656-0.184c0.088,0.616,0.56,1.12,1.207,1.12s1.239-0.496,1.239-1.176
		c0-0.703-0.552-0.943-1.111-1.199l-0.367-0.16c-0.704-0.32-1.312-0.68-1.312-1.543c0-0.936,0.791-1.535,1.687-1.535
		c0.672,0,1.239,0.344,1.56,0.936L222.748,16.237z"/>
	<path fill="#005C72" d="M224.086,15.062h3.127v0.624h-2.455v1.791h2.383v0.624h-2.383v2.367h2.455v0.624h-3.127V15.062z"/>
	<path fill="#005C72" d="M230.692,16.237c-0.239-0.416-0.527-0.655-1.039-0.655c-0.536,0-0.999,0.384-0.999,0.936
		c0,0.52,0.535,0.759,0.943,0.943l0.399,0.176c0.783,0.344,1.447,0.735,1.447,1.695c0,1.055-0.848,1.863-1.895,1.863
		c-0.968,0-1.688-0.624-1.879-1.559l0.655-0.184c0.088,0.616,0.56,1.12,1.207,1.12s1.239-0.496,1.239-1.176
		c0-0.703-0.552-0.943-1.111-1.199l-0.367-0.16c-0.704-0.32-1.312-0.68-1.312-1.543c0-0.936,0.791-1.535,1.687-1.535
		c0.672,0,1.239,0.344,1.56,0.936L230.692,16.237z"/>
	<path fill="#005C72" d="M234.764,16.237c-0.239-0.416-0.527-0.655-1.039-0.655c-0.536,0-0.999,0.384-0.999,0.936
		c0,0.52,0.535,0.759,0.943,0.943l0.399,0.176c0.783,0.344,1.447,0.735,1.447,1.695c0,1.055-0.848,1.863-1.895,1.863
		c-0.968,0-1.688-0.624-1.88-1.559l0.656-0.184c0.088,0.616,0.56,1.12,1.207,1.12s1.239-0.496,1.239-1.176
		c0-0.703-0.552-0.943-1.111-1.199l-0.367-0.16c-0.704-0.32-1.312-0.68-1.312-1.543c0-0.936,0.791-1.535,1.687-1.535
		c0.672,0,1.239,0.344,1.56,0.936L234.764,16.237z"/>
	<path fill="#005C72" d="M236.886,14.718l2.19,5.061l2.199-5.061l1.223,6.373h-0.688l-0.775-4.078h-0.016l-1.943,4.326l-1.935-4.326
		h-0.017l-0.775,4.078h-0.688L236.886,14.718z"/>
	<path fill="#005C72" d="M242.869,15.062h3.127v0.624h-2.455v1.791h2.383v0.624h-2.383v2.367h2.455v0.624h-3.127V15.062z"/>
	<path fill="#005C72" d="M246.781,14.806l4.701,4.925v-4.669h0.672v6.301l-4.701-4.917v4.646h-0.672V14.806z"/>
	<path fill="#005C72" d="M254.613,21.091h-0.672v-5.405h-1.455v-0.624h3.598v0.624h-1.471V21.091z"/>
	<path fill="#005C72" d="M259.107,16.237c-0.239-0.416-0.527-0.655-1.039-0.655c-0.536,0-0.999,0.384-0.999,0.936
		c0,0.52,0.535,0.759,0.943,0.943l0.399,0.176c0.783,0.344,1.447,0.735,1.447,1.695c0,1.055-0.848,1.863-1.895,1.863
		c-0.968,0-1.688-0.624-1.88-1.559l0.656-0.184c0.088,0.616,0.56,1.12,1.207,1.12s1.239-0.496,1.239-1.176
		c0-0.703-0.552-0.943-1.111-1.199l-0.367-0.16c-0.704-0.32-1.312-0.68-1.312-1.543c0-0.936,0.791-1.535,1.687-1.535
		c0.672,0,1.239,0.344,1.56,0.936L259.107,16.237z"/>
</g>
<g>
	<path fill="#005C72" d="M282.07,27.727c0.016,0.815-0.072,1.487-0.624,2.127s-1.392,1.007-2.23,1.007
		c-1.695,0-3.103-1.407-3.103-3.103c0-1.727,1.407-3.134,3.143-3.134c1.055,0,1.91,0.472,2.551,1.304l-0.488,0.456
		c-0.504-0.711-1.184-1.135-2.07-1.135c-1.376,0-2.463,1.159-2.463,2.519c0,0.64,0.256,1.247,0.703,1.703
		c0.44,0.439,1.08,0.768,1.711,0.768c1.048,0,2.151-0.768,2.151-1.887h-1.791v-0.624H282.07z"/>
	<path fill="#005C72" d="M282.625,24.729h3.127v0.624h-2.455v1.791h2.383v0.624h-2.383v2.367h2.455v0.624h-3.127V24.729z"/>
	<path fill="#005C72" d="M286.537,24.473l4.701,4.925v-4.669h0.672v6.301l-4.701-4.917v4.646h-0.672V24.473z"/>
	<path fill="#005C72" d="M292.769,24.729h3.127v0.624h-2.455v1.791h2.383v0.624h-2.383v2.367h2.455v0.624h-3.127V24.729z"/>
	<path fill="#005C72" d="M297.312,30.757h-0.672v-6.029h0.872c1.144,0,2.206,0.304,2.206,1.663c0,0.928-0.583,1.583-1.511,1.663
		l1.919,2.703h-0.823l-1.823-2.646h-0.168V30.757z M297.312,27.519h0.208c0.76,0,1.527-0.144,1.527-1.079
		c0-0.992-0.728-1.088-1.535-1.088h-0.2V27.519z"/>
	<path fill="#005C72" d="M301.479,29.046l-0.728,1.711h-0.735l2.782-6.316l2.711,6.316h-0.744l-0.711-1.711H301.479z
		 M302.783,26.008l-1.031,2.415h2.039L302.783,26.008z"/>
	<path fill="#005C72" d="M306.44,30.134h1.663v0.624h-2.335v-6.029h0.672V30.134z"/>
	<path fill="#005C72" d="M282.445,35.751c0,1.735-1.423,3.11-3.142,3.11c-1.72,0-3.143-1.375-3.143-3.11
		c0-1.727,1.423-3.126,3.143-3.126C281.022,32.625,282.445,34.024,282.445,35.751z M276.833,35.743c0,1.359,1.104,2.495,2.471,2.495
		s2.471-1.136,2.471-2.495c0-1.368-1.088-2.495-2.471-2.495C277.92,33.249,276.833,34.375,276.833,35.743z"/>
	<path fill="#005C72" d="M283.633,38.757h-0.672v-6.029h0.992c0.52,0,1.055,0.016,1.495,0.32c0.447,0.312,0.679,0.84,0.679,1.375
		c0,0.488-0.199,0.983-0.575,1.295c-0.408,0.335-0.928,0.399-1.432,0.399h-0.487V38.757z M283.633,35.495h0.447
		c0.744,0,1.376-0.224,1.376-1.087c0-0.983-0.792-1.056-1.575-1.056h-0.248V35.495z"/>
	<path fill="#005C72" d="M286.585,32.729h3.127v0.624h-2.455v1.791h2.383v0.624h-2.383v2.367h2.455v0.624h-3.127V32.729z"/>
	<path fill="#005C72" d="M291.129,38.757h-0.672v-6.029h0.872c1.144,0,2.206,0.304,2.206,1.663c0,0.928-0.583,1.583-1.511,1.663
		l1.919,2.703h-0.823l-1.823-2.646h-0.168V38.757z M291.129,35.519h0.208c0.76,0,1.527-0.144,1.527-1.079
		c0-0.992-0.728-1.088-1.535-1.088h-0.2V35.519z"/>
	<path fill="#005C72" d="M295.296,37.046l-0.728,1.711h-0.735l2.782-6.316l2.711,6.316h-0.744l-0.711-1.711H295.296z M296.6,34.008
		l-1.031,2.415h2.039L296.6,34.008z"/>
	<path fill="#005C72" d="M300.546,38.757h-0.672v-5.405h-1.455v-0.624h3.598v0.624h-1.471V38.757z"/>
	<path fill="#005C72" d="M302.993,38.757h-0.671v-6.029h0.671V38.757z"/>
	<path fill="#005C72" d="M303.857,32.473l4.701,4.925v-4.669h0.672v6.301l-4.701-4.917v4.646h-0.672V32.473z"/>
	<path fill="#005C72" d="M315.695,35.727c0.016,0.815-0.072,1.487-0.624,2.127s-1.392,1.007-2.23,1.007
		c-1.695,0-3.103-1.407-3.103-3.103c0-1.727,1.407-3.134,3.143-3.134c1.055,0,1.91,0.472,2.551,1.304l-0.488,0.456
		c-0.504-0.711-1.184-1.135-2.07-1.135c-1.376,0-2.463,1.159-2.463,2.519c0,0.64,0.256,1.247,0.703,1.703
		c0.44,0.439,1.08,0.768,1.711,0.768c1.048,0,2.151-0.768,2.151-1.887h-1.791v-0.624H315.695z"/>
	<path fill="#005C72" d="M276.465,40.729h3.127v0.624h-2.455v1.791h2.383v0.624h-2.383v2.367h2.455v0.624h-3.127V40.729z"/>
	<path fill="#005C72" d="M279.985,40.729h0.768L281.984,43l1.231-2.271h0.768l-1.632,2.911l1.783,3.118h-0.768l-1.383-2.479
		l-1.384,2.479h-0.768l1.783-3.118L279.985,40.729z"/>
	<path fill="#005C72" d="M285.121,46.757h-0.672v-6.029h0.992c0.52,0,1.055,0.016,1.495,0.32c0.447,0.312,0.679,0.84,0.679,1.375
		c0,0.488-0.199,0.983-0.575,1.295c-0.408,0.335-0.928,0.399-1.432,0.399h-0.487V46.757z M285.121,43.495h0.447
		c0.744,0,1.376-0.224,1.376-1.087c0-0.983-0.792-1.056-1.575-1.056h-0.248V43.495z"/>
	<path fill="#005C72" d="M288.072,40.729h3.127v0.624h-2.455v1.791h2.383v0.624h-2.383v2.367h2.455v0.624h-3.127V40.729z"/>
	<path fill="#005C72" d="M291.984,40.473l4.701,4.925v-4.669h0.672v6.301l-4.701-4.917v4.646h-0.672V40.473z"/>
	<path fill="#005C72" d="M300.951,41.904c-0.239-0.416-0.527-0.655-1.039-0.655c-0.536,0-0.999,0.384-0.999,0.936
		c0,0.52,0.535,0.759,0.943,0.943l0.399,0.176c0.783,0.344,1.447,0.735,1.447,1.695c0,1.055-0.848,1.863-1.895,1.863
		c-0.968,0-1.688-0.624-1.879-1.559l0.655-0.184c0.088,0.616,0.56,1.12,1.207,1.12s1.239-0.496,1.239-1.176
		c0-0.703-0.552-0.943-1.111-1.199l-0.367-0.16c-0.704-0.32-1.312-0.68-1.312-1.543c0-0.936,0.791-1.535,1.687-1.535
		c0.672,0,1.239,0.344,1.56,0.936L300.951,41.904z"/>
	<path fill="#005C72" d="M302.289,40.729h3.127v0.624h-2.455v1.791h2.383v0.624h-2.383v2.367h2.455v0.624h-3.127V40.729z"/>
	<path fill="#005C72" d="M308.895,41.904c-0.239-0.416-0.527-0.655-1.039-0.655c-0.536,0-0.999,0.384-0.999,0.936
		c0,0.52,0.535,0.759,0.943,0.943l0.399,0.176c0.783,0.344,1.447,0.735,1.447,1.695c0,1.055-0.848,1.863-1.895,1.863
		c-0.968,0-1.688-0.624-1.879-1.559l0.655-0.184c0.088,0.616,0.56,1.12,1.207,1.12s1.239-0.496,1.239-1.176
		c0-0.703-0.552-0.943-1.111-1.199l-0.367-0.16c-0.704-0.32-1.312-0.68-1.312-1.543c0-0.936,0.791-1.535,1.687-1.535
		c0.672,0,1.239,0.344,1.56,0.936L308.895,41.904z"/>
</g>
<g>
	<path fill="#005C72" d="M309.136,74.091h-0.672v-6.029h0.872c1.144,0,2.206,0.304,2.206,1.663c0,0.928-0.583,1.583-1.511,1.663
		l1.919,2.703h-0.823l-1.823-2.646h-0.168V74.091z M309.136,70.853h0.208c0.76,0,1.527-0.144,1.527-1.079
		c0-0.992-0.728-1.088-1.535-1.088h-0.2V70.853z"/>
	<path fill="#005C72" d="M312.399,68.062h3.127v0.624h-2.455v1.791h2.383v0.624h-2.383v2.367h2.455v0.624h-3.127V68.062z"/>
	<path fill="#005C72" d="M316.312,67.806l4.701,4.925v-4.669h0.672v6.301l-4.701-4.917v4.646h-0.672V67.806z"/>
	<path fill="#005C72" d="M324.144,74.091h-0.672v-5.405h-1.455v-0.624h3.598v0.624h-1.471V74.091z"/>
</g>
<g>
	<path fill="#005C72" d="M323.787,96.652c0,0.448-0.017,0.959,0.264,1.343c0.264,0.368,0.775,0.576,1.215,0.576
		c0.432,0,0.904-0.2,1.184-0.536c0.32-0.384,0.296-0.911,0.296-1.383v-3.59h0.672v3.774c0,0.656-0.048,1.175-0.528,1.671
		c-0.415,0.448-1.015,0.688-1.623,0.688c-0.567,0-1.151-0.216-1.559-0.616c-0.528-0.504-0.592-1.056-0.592-1.743v-3.774h0.672
		V96.652z"/>
	<path fill="#005C72" d="M329.811,99.091h-0.672v-5.405h-1.455v-0.624h3.598v0.624h-1.471V99.091z"/>
	<path fill="#005C72" d="M332.258,99.091h-0.671v-6.029h0.671V99.091z"/>
	<path fill="#005C72" d="M333.755,98.467h1.663v0.624h-2.335v-6.029h0.672V98.467z"/>
	<path fill="#005C72" d="M336.37,99.091h-0.671v-6.029h0.671V99.091z"/>
	<path fill="#005C72" d="M338.794,99.091h-0.672v-5.405h-1.455v-0.624h3.598v0.624h-1.471V99.091z"/>
	<path fill="#005C72" d="M341.242,99.091h-0.671v-6.029h0.671V99.091z"/>
	<path fill="#005C72" d="M342.066,93.062h3.127v0.624h-2.455v1.791h2.383v0.624h-2.383v2.367h2.455v0.624h-3.127V93.062z"/>
	<path fill="#005C72" d="M348.673,94.237c-0.239-0.416-0.527-0.655-1.039-0.655c-0.536,0-0.999,0.384-0.999,0.936
		c0,0.52,0.535,0.759,0.943,0.943l0.399,0.176c0.783,0.344,1.447,0.735,1.447,1.695c0,1.055-0.848,1.863-1.895,1.863
		c-0.968,0-1.688-0.624-1.88-1.559l0.656-0.184c0.088,0.616,0.56,1.12,1.207,1.12s1.239-0.496,1.239-1.176
		c0-0.703-0.552-0.943-1.111-1.199l-0.367-0.16c-0.704-0.32-1.312-0.68-1.312-1.543c0-0.936,0.791-1.535,1.687-1.535
		c0.672,0,1.239,0.344,1.56,0.936L348.673,94.237z"/>
	<path fill="#005C72" d="M329.149,105.323c0,1.959-0.949,4.068-3.198,4.068c-2.248,0-3.198-2.109-3.198-4.068
		s0.96-4.068,3.198-4.068C328.19,101.255,329.149,103.364,329.149,105.323z M324.702,105.313c0,0.729,0.24,2.349,1.249,2.349
		c1.01,0,1.25-1.619,1.25-2.349s-0.24-2.329-1.25-2.329C324.942,102.984,324.702,104.583,324.702,105.313z"/>
	<path fill="#005C72" d="M331.772,108.122c0,0.64-0.52,1.169-1.17,1.169c-0.649,0-1.169-0.529-1.169-1.169
		c0-0.65,0.52-1.169,1.169-1.169C331.253,106.952,331.772,107.472,331.772,108.122z"/>
	<path fill="#005C72" d="M334.852,103.214l-0.13,0.86l0.62-0.05c1.539-0.12,2.668,1.14,2.668,2.699c0,0.79-0.35,1.529-0.969,2.039
		c-0.6,0.479-1.449,0.629-2.199,0.629c-0.859,0-1.729-0.21-2.459-0.68l0.29-1.849c0.58,0.52,1.319,0.87,2.099,0.87
		c0.62,0,1.199-0.45,1.199-1.109c0-0.909-0.869-1.289-1.648-1.289c-0.5,0-0.989,0.1-1.439,0.31l0.66-4.087h3.917v1.659H334.852z"/>
	<path fill="#005C72" d="M342.511,103.284c0,1.219-0.909,1.859-2.059,1.859s-2.06-0.64-2.06-1.859c0-1.2,0.939-1.829,2.06-1.829
		C341.571,101.455,342.511,102.084,342.511,103.284z M339.603,103.304c0,0.47,0.38,0.839,0.85,0.839s0.85-0.37,0.85-0.839
		s-0.38-0.85-0.85-0.85S339.603,102.834,339.603,103.304z M345.749,101.555l-4.378,7.536h-0.979l4.378-7.536H345.749z
		 M347.758,107.332c0,1.219-0.909,1.859-2.059,1.859s-2.059-0.64-2.059-1.859c0-1.2,0.939-1.829,2.059-1.829
		S347.758,106.132,347.758,107.332z M344.85,107.352c0,0.47,0.38,0.84,0.85,0.84s0.85-0.37,0.85-0.84s-0.38-0.849-0.85-0.849
		S344.85,106.882,344.85,107.352z"/>
</g>
<polyline fill="none" stroke="#005C72" stroke-linecap="round" stroke-linejoin="round" stroke-miterlimit="10" points="
	279.859,86.423 294.193,72.089 304.693,72.089 "/>
<line fill="none" stroke="#005C72" stroke-linecap="round" stroke-linejoin="round" stroke-miterlimit="10" x1="288.193" y1="95.756" x2="319.526" y2="95.756"/>
</svg>
