<?xml version="1.0" encoding="utf-8"?>
<!-- Generator: Adobe Illustrator 15.0.2, SVG Export Plug-In  -->
<!DOCTYPE svg PUBLIC "-//W3C//DTD SVG 1.1//EN" "http://www.w3.org/Graphics/SVG/1.1/DTD/svg11.dtd" [
	<!ENTITY ns_flows "http://ns.adobe.com/Flows/1.0/">
]>
<svg version="1.1"
	 xmlns="http://www.w3.org/2000/svg" xmlns:xlink="http://www.w3.org/1999/xlink" xmlns:a="http://ns.adobe.com/AdobeSVGViewerExtensions/3.0/"
	 x="0px" y="0px" width="960px" height="225px" viewBox="0 -1.917 960 225"
	 overflow="visible" enable-background="new 0 -1.917 960 225" xml:space="preserve">
<defs>
</defs>
<linearGradient id="SVGID_2_" gradientUnits="userSpaceOnUse" x1="647.02" y1="110.583" x2="959.9995" y2="110.583">
	<stop  offset="0" style="stop-color:#A7A9AC"/>
	<stop  offset="1" style="stop-color:#FFFFFF"/>
</linearGradient>
<rect x="647.02" fill="url(#SVGID_2_)" width="312.979" height="221.166"/>
<radialGradient id="SVGID_3_" cx="803.5112" cy="109.3228" r="224.3581" gradientTransform="matrix(1 0 0 0.9304 0 8.8723)" gradientUnits="userSpaceOnUse">
	<stop  offset="0" style="stop-color:#F1F2F2"/>
	<stop  offset="0.4374" style="stop-color:#ECEDED"/>
	<stop  offset="0.9588" style="stop-color:#DDDEDF"/>
	<stop  offset="1" style="stop-color:#DCDDDE"/>
</radialGradient>
<rect x="649.81" y="2.596" fill="url(#SVGID_3_)" width="307.401" height="215.975"/>
<linearGradient id="SVGID_4_" gradientUnits="userSpaceOnUse" x1="637.6831" y1="109.8838" x2="667.8677" y2="109.8838" gradientTransform="matrix(1.027 0 0 1 -2.2944 0)">
	<stop  offset="0" style="stop-color:#231F20;stop-opacity:0.6"/>
	<stop  offset="1" style="stop-color:#231F20;stop-opacity:0"/>
</linearGradient>
<polyline fill="url(#SVGID_4_)" points="652.606,56.234 683.606,109.884 652.606,163.533 "/>
<linearGradient id="SVGID_5_" gradientUnits="userSpaceOnUse" x1="323.3389" y1="109.8979" x2="679.4019" y2="109.8979">
	<stop  offset="0" style="stop-color:#A7A9AC"/>
	<stop  offset="1" style="stop-color:#FFFFFF"/>
</linearGradient>
<polygon fill="url(#SVGID_5_)" points="323.339,163.548 323.339,56.248 652.912,56.248 679.402,109.898 652.912,163.548 "/>
<linearGradient id="SVGID_6_" gradientUnits="userSpaceOnUse" x1="320.0752" y1="109.8979" x2="660.4243" y2="109.8979" gradientTransform="matrix(1.027 0 0 1 -2.2944 0)">
	<stop  offset="0" style="stop-color:#F1F2F2"/>
	<stop  offset="1" style="stop-color:#DCDDDE"/>
</linearGradient>
<polygon fill="url(#SVGID_6_)" points="650.995,160.464 488.708,160.464 326.422,160.464 326.422,109.898 326.422,59.332 
	488.708,59.332 650.995,59.332 675.961,109.898 "/>
<linearGradient id="SVGID_7_" gradientUnits="userSpaceOnUse" x1="323.1636" y1="109.8838" x2="353.3486" y2="109.8838" gradientTransform="matrix(1.027 0 0 1 -2.2944 0)">
	<stop  offset="0" style="stop-color:#231F20;stop-opacity:0.6"/>
	<stop  offset="1" style="stop-color:#231F20;stop-opacity:0"/>
</linearGradient>
<polyline fill="url(#SVGID_7_)" points="329.594,56.234 360.594,109.884 329.594,163.533 "/>
<linearGradient id="SVGID_8_" gradientUnits="userSpaceOnUse" x1="0" y1="109.8979" x2="356.0635" y2="109.8979">
	<stop  offset="0" style="stop-color:#A7A9AC"/>
	<stop  offset="1" style="stop-color:#FFFFFF"/>
</linearGradient>
<polygon fill="url(#SVGID_8_)" points="0,163.548 0,56.248 329.573,56.248 356.063,109.898 329.573,163.548 "/>
<linearGradient id="SVGID_9_" gradientUnits="userSpaceOnUse" x1="5.2378" y1="109.8979" x2="345.5874" y2="109.8979" gradientTransform="matrix(1.027 0 0 1 -2.2944 0)">
	<stop  offset="0" style="stop-color:#F1F2F2"/>
	<stop  offset="1" style="stop-color:#DCDDDE"/>
</linearGradient>
<polygon fill="url(#SVGID_9_)" points="327.656,160.464 3.084,160.464 3.084,59.332 327.656,59.332 352.624,109.898 "/>
<linearGradient id="SVGID_10_" gradientUnits="userSpaceOnUse" x1="363.6558" y1="124.6348" x2="456.0044" y2="124.6348" gradientTransform="matrix(0.9763 0.2163 -0.2163 0.9763 41.055 -98.6219)">
	<stop  offset="0" style="stop-color:#5DC1ED"/>
	<stop  offset="1" style="stop-color:#008EAF"/>
</linearGradient>
<path fill="url(#SVGID_10_)" d="M362.904,129.835c0,0,26.037-20.391,65.345-26.023c14.194-2.035,24.914-0.235,32.063,2.054
	c1.563-3.687,3.488-8.227,5.209-12.29C405.512,83.217,362.904,129.835,362.904,129.835z"/>
<polygon fill="#0B2343" points="562.447,90.787 562.447,104.692 557.263,104.692 557.263,90.787 545.696,90.787 545.696,129.681 
	557.263,129.681 557.263,114.95 562.447,114.95 562.447,129.681 574.019,129.681 574.019,90.787 "/>
<path fill="#0B2343" d="M588.667,90.787v38.894h-11.568V90.787H588.667z"/>
<path fill="#0B2343" d="M613.582,90.787h11.568v23.108c0,1.807,0.292,3.008,0.868,3.604c0.582,0.599,1.725,0.899,3.435,0.899h14.912
	v11.281h-17.39c-4.218,0-7.504-1.229-9.857-3.689c-2.357-2.459-3.536-5.875-3.536-10.243V90.787z"/>
<path fill="#0B2343" d="M614.756,125.97c-1.883-2.4-2.309-4.451-2.703-7.57h-4.252c-1.711,0-2.856-0.301-3.436-0.899
	c-0.577-0.597-0.869-1.798-0.869-3.604V90.787h-11.568v24.961c0,4.368,1.178,7.784,3.536,10.243c2.354,2.46,5.641,3.689,9.855,3.689
	h14.347C619.667,129.681,616.638,128.365,614.756,125.97z"/>
<path fill="#008EAF" d="M541.926,122.058l-0.035-2.495l-8.709,0.001c-1.287,0.019-2.373-0.251-3.257-1.056
	c-0.885-0.806-1.337-1.846-1.354-3.121c-0.021-1.275,0.406-2.327,1.273-3.16c0.87-0.829,1.941-1.38,3.214-1.397h8.707l-0.034-2.422
	l-8.831-0.001c-1.841,0.026-3.413,0.816-4.706,2.108c-1.294,1.294-1.927,2.857-1.901,4.687c0.013,0.898,0.19,1.714,0.524,2.443
	c0.252,0.603,0.703,1.111,1.352,1.919h-5.627l0.037,2.493L541.926,122.058z"/>
<path fill="#008EAF" d="M534.08,107.148c2.218-0.033,4.068-0.87,5.554-2.515c1.487-1.644,2.212-3.607,2.179-5.891
	c-0.023-1.632-0.362-3.11-1.016-4.438c-0.689-1.459-1.667-2.514-2.936-3.163l-1.563,1.661c0.999,0.36,1.803,1.222,2.408,2.583
	c0.505,1.168,0.769,2.402,0.785,3.707c0.024,1.535-0.496,2.85-1.556,3.951c-1.061,1.1-2.356,1.668-3.892,1.706
	c-1.563,0.038-2.9-0.519-4.011-1.667c-1.109-1.149-1.676-2.532-1.699-4.146c-0.044-3.231,1.403-5.095,4.346-5.596l0.026,0.025
	l0.134,9.052l1.954-0.029l-0.169-11.741c-0.357-0.009-0.701-0.016-1.026-0.009c-2.707,0.037-4.693,0.889-5.957,2.556
	c-1.073,1.402-1.601,3.326-1.584,5.772c0.036,2.269,0.83,4.204,2.386,5.812C529.999,106.391,531.878,107.179,534.08,107.148z"/>
<path fill="#008EAF" d="M541.987,124.504c-0.031-0.946-0.048-1.468-0.048-1.564l-2.223,0.03c0.001,0.212,0.005,0.514,0.009,0.907
	c0.007,0.39,0.011,0.69,0.017,0.904c0.021,1.613-0.412,2.745-1.298,3.395c-0.176,0.132-0.48,0.272-0.921,0.417
	c-0.436,0.144-0.77,0.218-0.994,0.221h-7.651v-5.874h-2.495v5.874h-3.858l0.036,2.411h14.733c1.044-0.016,1.981-0.336,2.821-0.971
	c0.838-0.631,1.389-1.445,1.65-2.445c0.124-0.442,0.207-0.973,0.246-1.592C542.021,125.775,542.015,125.203,541.987,124.504z"/>
<path fill="#008EAF" d="M508.459,105.557h10.082v2.129h-10.082V105.557z M508.459,112.479h10.082v2.126h-10.082V112.479z"/>
<linearGradient id="SVGID_11_" gradientUnits="userSpaceOnUse" x1="455.1108" y1="114.1514" x2="488.1489" y2="114.1514" gradientTransform="matrix(0.9763 0.2163 -0.2163 0.9763 41.055 -98.6219)">
	<stop  offset="0" style="stop-color:#5DC1ED"/>
	<stop  offset="1" style="stop-color:#008EAF"/>
</linearGradient>
<path fill="url(#SVGID_11_)" d="M490.858,119.487c0.457-0.536,0.891-1.09,1.287-1.66s0.76-1.155,1.06-1.761
	c0.298-0.604,0.535-1.229,0.671-1.858c0.131-0.632,0.168-1.259,0.062-1.861c-0.099-0.572-0.369-1.088-0.791-1.519
	c-0.421-0.432-0.983-0.774-1.599-1.039c-1.241-0.527-2.657-0.772-4.074-0.905c-1.425-0.125-2.873-0.142-4.319-0.073
	c-1.446,0.067-2.896,0.191-4.339,0.378c-1.445,0.186-2.884,0.414-4.317,0.684c-1.429,0.279-2.855,0.592-4.268,0.943
	c-0.708,0.175-1.411,0.364-2.108,0.568c-0.697,0.205-1.395,0.417-2.063,0.671c-0.66,0.264-1.343,0.555-2.007,0.848l-2.004,0.898
	c-0.339,0.149-0.676,0.297-1.038,0.432c-0.182,0.066-0.369,0.13-0.587,0.174c-0.111,0.021-0.227,0.041-0.374,0.035
	c-0.02,0-0.042-0.002-0.063-0.005l24.894,10.666c1.029-0.826,2.034-1.673,2.998-2.562
	C488.929,121.567,489.942,120.561,490.858,119.487z"/>
<path fill="none" d="M492.194,86.916c-0.634-0.257-1.276-0.458-1.911-0.6c-2.17-0.479-4.362-0.271-6.516,0.621
	c-0.604,0.25-1.174,0.553-1.715,0.894c5.102,2.194,11.588,4.981,16.655,7.159c-0.129-0.625-0.299-1.245-0.525-1.854
	C497.079,90.177,495.062,88.083,492.194,86.916z"/>
<path fill="#0E223D" d="M483.767,86.938c2.153-0.893,4.346-1.101,6.516-0.621c0.635,0.142,1.277,0.343,1.911,0.6
	c2.868,1.167,4.885,3.261,5.988,6.221c0.227,0.608,0.396,1.229,0.525,1.854c1.042,0.45,2.022,0.872,2.922,1.258
	c-0.096-1.432-0.405-2.863-0.935-4.277c-1.383-3.699-3.797-6.229-7.376-7.729c-0.817-0.342-1.645-0.605-2.458-0.785
	c-2.727-0.604-5.484-0.287-8.191,0.938c-1.284,0.582-2.45,1.319-3.487,2.202c0.887,0.38,1.851,0.796,2.87,1.235
	C482.593,87.49,483.164,87.188,483.767,86.938z"/>
<path fill="#FFDD6C" d="M505.893,98.173c-0.222-0.131-0.329-0.23-0.812-0.439c-0.89-0.384-2.071-0.892-3.451-1.485
	c-0.899-0.386-1.88-0.808-2.922-1.258c-5.067-2.178-11.554-4.965-16.655-7.159c-1.02-0.439-1.983-0.855-2.87-1.235
	c-2.979-1.283-5.081-2.19-5.455-2.355c-1.556-0.693-2.2,0.81-2.2,0.81l-11.513,26.846c0.05-0.051,0.099-0.103,0.146-0.152
	c0.547-0.553,1.135-1.02,1.734-1.468c0.595-0.449,1.218-0.875,1.84-1.273c1.246-0.799,2.513-1.552,3.794-2.281
	c1.282-0.728,2.577-1.432,3.892-2.098c2.625-1.348,5.312-2.578,8.077-3.646c2.764-1.062,5.608-1.968,8.558-2.541
	c2.946-0.542,5.91-0.797,8.88-0.805c1.483-0.008,2.965,0.04,4.441,0.153c1.475,0.111,2.946,0.275,4.412,0.52
	C506.155,98.368,506.025,98.318,505.893,98.173z"/>
<path fill="#0E223D" d="M489.145,99.251c-9.97,1.784-23.018,8.897-26.273,11.099c-3.255,2.202-3.421,3.171-2.961,3.583
	c0.459,0.417,1.896-0.472,5.886-2.081c3.989-1.611,27.845-7.5,29.071,0.58c0.607,4.015-3.569,8.812-8.79,13.157
	c0,0,5.25,2.316,6.799,2.912c1.505,0.56,2.008,0.316,2.478-0.781c0.47-1.095,11.166-26.032,11.493-26.803
	c0.326-0.771,0.286-1.816-0.614-2.083C503.261,98.394,496.585,97.918,489.145,99.251z M481.608,106.659
	c-0.529,0.106-1.043-0.234-1.149-0.762c-0.105-0.528,2.712-1.096,2.817-0.569C483.383,105.855,482.136,106.551,481.608,106.659z
	 M488.555,104.307c-0.093,0.393-0.232,0.757-0.397,1.089c0.017-0.057,0.034-0.112,0.048-0.173c0.376-1.574-0.506-1.863-0.965-1.445
	c-0.377,0.346-0.153,1.841-0.186,2.706c-0.104,0.091-0.237,0.169-0.237,0.169s-0.38-3.711,0.215-4.252
	C487.625,101.861,489.042,102.267,488.555,104.307z"/>
<path fill="#FFFFFF" d="M442.807,99.231c0.013,0.012,0.025,0.018,0.038,0.018c0.013,0,0.025,0,0.038,0
	c0.012,0.001,0.025,0,0.038,0.001c0.013,0,0.025,0,0.038,0c0.013,0.007,0.025,0.009,0.038,0.009c0.013,0.003,0.025,0,0.038,0
	c0.014,0.003,0.026,0,0.039,0c0.012,0.003,0.024,0.003,0.037,0.003c0.075,0,0.147-0.006,0.212-0.015
	c0.066-0.01,0.131-0.026,0.194-0.051c0.063-0.018,0.11-0.055,0.142-0.107c0.032-0.054,0.048-0.12,0.048-0.203
	c0.001-0.088-0.022-0.168-0.069-0.236c-0.047-0.07-0.118-0.129-0.212-0.182c-0.095-0.05-0.203-0.098-0.326-0.142
	c-0.122-0.046-0.255-0.091-0.4-0.135c-0.019-0.006-0.038-0.01-0.057-0.014c-0.019-0.005-0.037-0.009-0.057-0.015
	c-0.025-0.006-0.048-0.012-0.065-0.015c-0.02-0.004-0.038-0.01-0.057-0.015c-0.044-0.013-0.086-0.025-0.127-0.038
	c-0.041-0.014-0.08-0.027-0.118-0.039c-0.201-0.052-0.381-0.119-0.542-0.2c-0.16-0.083-0.302-0.175-0.428-0.278
	c-0.119-0.106-0.208-0.23-0.267-0.373c-0.06-0.141-0.088-0.303-0.088-0.485c0.001-0.26,0.046-0.47,0.135-0.638
	c0.089-0.166,0.222-0.281,0.398-0.343c0.176-0.068,0.369-0.119,0.577-0.152c0.208-0.034,0.435-0.051,0.68-0.049l1.709-0.01
	l-0.004,0.736l-1.784-0.009c-0.114,0.012-0.219,0.023-0.317,0.034c-0.098,0.014-0.188,0.031-0.27,0.057
	c-0.082,0.025-0.141,0.062-0.18,0.112c-0.038,0.05-0.057,0.114-0.057,0.188c-0.001,0.084,0.02,0.157,0.06,0.224
	c0.041,0.065,0.102,0.122,0.184,0.167c0.082,0.044,0.168,0.083,0.26,0.118c0.09,0.036,0.187,0.069,0.287,0.1
	c0.032,0.007,0.062,0.015,0.09,0.02c0.028,0.007,0.054,0.013,0.08,0.02c0.013,0.008,0.026,0.012,0.037,0.016
	c0.013,0.002,0.029,0.004,0.048,0.004c0.013,0.007,0.024,0.012,0.037,0.015c0.013,0.004,0.025,0.006,0.039,0.004
	c0.019,0.008,0.037,0.014,0.056,0.02c0.019,0.008,0.038,0.014,0.057,0.021c0.012,0,0.021,0.002,0.027,0.004
	c0.007,0.004,0.017,0.005,0.029,0.006c0.006,0.007,0.014,0.011,0.024,0.014c0.009,0.004,0.017,0.006,0.023,0.006
	c0.276,0.095,0.511,0.194,0.707,0.296c0.194,0.102,0.344,0.204,0.451,0.314c0.107,0.107,0.186,0.233,0.239,0.382
	c0.053,0.148,0.079,0.314,0.078,0.496c-0.007,0.209-0.042,0.384-0.102,0.525c-0.061,0.14-0.145,0.252-0.252,0.332
	c-0.101,0.083-0.209,0.147-0.326,0.197c-0.116,0.05-0.238,0.084-0.364,0.102c-0.044,0.007-0.087,0.01-0.128,0.009
	c-0.041,0.001-0.08,0-0.118,0c-0.019,0-0.037,0-0.056,0s-0.038,0.002-0.057,0.008c-0.019,0-0.036,0-0.051,0
	c-0.016,0-0.033,0-0.052,0c-0.02,0-0.037,0-0.052,0s-0.03,0-0.042,0c-0.019,0-0.037,0-0.052,0c-0.016,0-0.029-0.001-0.042-0.001
	c-0.02-0.006-0.037-0.009-0.052-0.009c-0.016,0-0.03,0-0.042,0c-0.013,0-0.025-0.001-0.037-0.001c-0.013,0-0.026,0.001-0.038,0
	l-1.851-0.01l0.004-0.823L442.807,99.231z"/>
<path fill="#FFFFFF" d="M446.39,93.521l-0.151,2.449c0.092-0.057,0.187-0.112,0.289-0.165c0.101-0.054,0.203-0.104,0.306-0.147
	c0.104-0.044,0.214-0.075,0.328-0.094c0.115-0.017,0.238-0.022,0.37-0.015c0.238,0.014,0.46,0.063,0.667,0.145
	c0.207,0.083,0.394,0.198,0.561,0.348c0.167,0.148,0.29,0.321,0.366,0.519c0.076,0.198,0.106,0.414,0.092,0.654l-0.191,3.101
	l-0.82-0.051l0.164-2.667c0.011-0.177-0.004-0.338-0.045-0.486c-0.042-0.146-0.11-0.274-0.204-0.381
	c-0.093-0.113-0.201-0.199-0.32-0.262c-0.119-0.06-0.251-0.095-0.396-0.104c-0.176-0.012-0.332,0.004-0.466,0.042
	c-0.135,0.038-0.249,0.101-0.343,0.183c-0.094,0.088-0.172,0.182-0.235,0.278c-0.062,0.097-0.113,0.198-0.15,0.303
	c-0.009,0.031-0.017,0.063-0.025,0.097c-0.008,0.035-0.017,0.068-0.025,0.1c-0.008,0.031-0.013,0.061-0.015,0.088
	c-0.002,0.029-0.004,0.06-0.006,0.09l-0.159,2.583l-0.82-0.051l0.406-6.606L446.39,93.521z"/>
<path fill="#FFFFFF" d="M450.273,97.095c0.155-0.259,0.362-0.477,0.62-0.65c0.265-0.175,0.536-0.295,0.814-0.362
	c0.28-0.067,0.565-0.082,0.859-0.042c0.012,0.001,0.026,0.003,0.042,0.006c0.015,0.002,0.029,0.003,0.041,0.005
	c0.011,0.009,0.025,0.014,0.042,0.015c0.016,0.003,0.032,0.006,0.051,0.008c0.013,0.002,0.026,0.004,0.042,0.006
	c0.015,0.001,0.033,0.004,0.051,0.006c0.011,0.008,0.026,0.014,0.042,0.017c0.015,0.001,0.029,0.003,0.042,0.004
	c0.245,0.07,0.474,0.176,0.687,0.317c0.213,0.138,0.414,0.313,0.602,0.521c0.181,0.215,0.306,0.471,0.374,0.766
	c0.069,0.295,0.077,0.629,0.028,1.003c-0.003,0.025-0.006,0.051-0.011,0.075c-0.003,0.025-0.009,0.046-0.018,0.065
	c-0.003,0.023-0.009,0.048-0.015,0.072c-0.006,0.026-0.012,0.051-0.015,0.076c-0.013,0.048-0.028,0.097-0.043,0.146
	c-0.017,0.048-0.034,0.097-0.053,0.146c-0.085,0.217-0.201,0.419-0.344,0.605c-0.142,0.188-0.315,0.361-0.521,0.517
	c-0.199,0.157-0.425,0.264-0.681,0.319c-0.256,0.055-0.532,0.062-0.832,0.023c-0.424-0.059-0.783-0.165-1.076-0.321
	c-0.294-0.157-0.521-0.368-0.683-0.629c-0.161-0.265-0.271-0.546-0.33-0.846c-0.059-0.299-0.066-0.615-0.021-0.945l0.002-0.021
	C450.017,97.655,450.118,97.354,450.273,97.095z M450.842,98.251c-0.005,0.043-0.008,0.085-0.008,0.129
	c0,0.044,0.003,0.088,0.007,0.129c0.003,0.041,0.006,0.085,0.006,0.13c0.013,0.142,0.043,0.281,0.095,0.422
	c0.051,0.14,0.118,0.276,0.203,0.408c0.091,0.133,0.21,0.237,0.357,0.314c0.149,0.078,0.329,0.131,0.542,0.159
	c0.2,0.026,0.391,0.024,0.573-0.009c0.182-0.034,0.353-0.097,0.51-0.188c0.159-0.094,0.289-0.243,0.39-0.449
	c0.099-0.205,0.17-0.464,0.212-0.776c0.03-0.218,0.025-0.421-0.013-0.608c-0.039-0.185-0.111-0.354-0.218-0.509
	c-0.107-0.147-0.248-0.268-0.423-0.361c-0.174-0.093-0.381-0.156-0.618-0.188c-0.225-0.03-0.422-0.026-0.591,0.012
	c-0.171,0.037-0.318,0.111-0.44,0.222c-0.122,0.105-0.225,0.221-0.309,0.349c-0.084,0.13-0.148,0.264-0.191,0.404
	c-0.01,0.024-0.02,0.049-0.03,0.07c-0.009,0.025-0.016,0.05-0.019,0.075c-0.004,0.025-0.007,0.05-0.01,0.076
	c-0.003,0.022-0.007,0.048-0.01,0.073l0.001-0.02C450.853,98.167,450.848,98.212,450.842,98.251z"/>
<path fill="#FFFFFF" d="M455.319,98.816c0.072-0.317,0.179-0.594,0.316-0.823c0.14-0.231,0.312-0.416,0.519-0.557
	c0.206-0.141,0.412-0.249,0.619-0.325c0.208-0.075,0.42-0.121,0.636-0.138c0.059-0.006,0.118-0.009,0.175-0.009
	c0.058,0.001,0.116,0.004,0.173,0.012c0.031,0,0.06,0.002,0.085,0.005c0.026,0.001,0.053,0.006,0.084,0.013
	c0.025,0,0.052,0.002,0.08,0.008c0.027,0.008,0.053,0.014,0.078,0.019c0.326,0.074,0.603,0.177,0.832,0.309
	c0.228,0.132,0.41,0.298,0.546,0.494c0.13,0.191,0.238,0.387,0.318,0.58c0.082,0.197,0.132,0.395,0.152,0.592
	c0.008,0.079,0.014,0.158,0.016,0.236c0.001,0.077-0.003,0.153-0.013,0.229c-0.004,0.076-0.011,0.147-0.02,0.214
	c-0.008,0.065-0.018,0.13-0.032,0.189c-0.014,0.062-0.033,0.129-0.055,0.197s-0.046,0.14-0.076,0.21
	c-0.022,0.073-0.051,0.144-0.087,0.213c-0.035,0.07-0.073,0.14-0.114,0.206c-0.101,0.165-0.224,0.317-0.365,0.46
	c-0.141,0.143-0.309,0.272-0.503,0.39c-0.188,0.119-0.409,0.196-0.661,0.229c-0.252,0.033-0.536,0.027-0.849-0.016
	c-0.091-0.021-0.182-0.049-0.271-0.082c-0.089-0.033-0.184-0.073-0.283-0.121c-0.092-0.047-0.197-0.106-0.313-0.176
	c-0.116-0.073-0.237-0.161-0.361-0.266l0.199-0.886c0.079,0.077,0.153,0.142,0.222,0.196c0.069,0.054,0.131,0.1,0.187,0.139
	c0.056,0.038,0.11,0.074,0.165,0.104c0.055,0.031,0.107,0.06,0.161,0.084c0.029,0.015,0.059,0.028,0.092,0.041
	c0.032,0.014,0.067,0.023,0.104,0.033c0.028,0.013,0.062,0.023,0.099,0.031c0.037,0.009,0.076,0.019,0.12,0.027
	c0.233,0.054,0.446,0.062,0.636,0.032c0.19-0.032,0.358-0.108,0.502-0.23c0.144-0.121,0.264-0.268,0.364-0.436
	s0.173-0.359,0.222-0.573c0.053-0.234,0.061-0.454,0.027-0.658c-0.035-0.205-0.113-0.392-0.236-0.562
	c-0.124-0.169-0.26-0.306-0.411-0.411c-0.151-0.105-0.315-0.177-0.494-0.218c-0.043-0.01-0.086-0.016-0.131-0.02
	c-0.044-0.002-0.093-0.004-0.144-0.002c-0.051-0.007-0.103-0.004-0.157,0.002c-0.053,0.008-0.107,0.018-0.161,0.032
	c-0.124,0.03-0.245,0.077-0.367,0.145c-0.122,0.066-0.243,0.15-0.361,0.252c-0.119,0.097-0.22,0.222-0.304,0.377
	c-0.082,0.156-0.149,0.341-0.197,0.556l-0.911,4.044l-0.802-0.181L455.319,98.816z"/>
<path fill="#999999" d="M439.676,139.104c0.296-1.112,0.629-1.902,1.222-2.495c0.481-0.469,0.987-0.665,1.542-0.665
	c0.667,0,1.098,0.357,1.098,0.876c0,0.444-0.333,0.617-0.58,0.617c-0.26,0-0.407-0.124-0.371-0.334
	c0.025-0.111,0.05-0.259,0.05-0.347c0-0.245-0.086-0.443-0.42-0.443c-0.382,0-0.678,0.382-0.913,0.987
	c-0.198,0.495-0.37,1.123-0.543,1.804h1.209l-0.135,0.368l-1.185,0.087c-0.506,2.012-1.074,4.196-1.456,5.245
	c-0.395,1.024-0.889,1.703-1.704,2.198c-0.382,0.222-0.74,0.295-1.11,0.295c-0.469,0-0.914-0.346-0.914-0.74
	c0-0.246,0.21-0.506,0.433-0.593c0.173-0.073,0.309-0.012,0.407,0.161c0.209,0.357,0.444,0.592,0.752,0.592
	c0.457,0,0.704-0.419,1-1.357c0.308-0.975,0.975-3.528,1.506-5.801l-0.925-0.099l0.148-0.356H439.676z"/>
<path fill="#999999" d="M444.833,138.892c1.148,0,1.777,0.655,1.777,1.839c0,1.197-0.604,2.616-1.58,3.283
	c-0.518,0.347-1.037,0.494-1.667,0.494c-0.814,0-1.79-0.32-1.79-1.79c0-1.208,0.642-2.629,1.654-3.332
	c0.456-0.308,1.012-0.494,1.592-0.494H444.833z M444.784,139.238c-0.419,0-0.827,0.233-1.197,0.752
	c-0.531,0.74-0.975,2.136-0.975,3.036c0,0.84,0.407,1.123,0.838,1.123c0.371,0,0.716-0.16,1.037-0.543
	c0.617-0.752,1.099-2.332,1.099-3.308c0-0.617-0.223-1.061-0.79-1.061H444.784z"/>
<path fill="#999999" d="M447.682,139.201c0.605-0.05,1.383-0.148,1.901-0.31c-0.074,0.494-0.333,1.482-0.481,2.074h0.049
	c0.691-1.396,1.308-2.074,2.025-2.074c0.457,0,0.617,0.383,0.617,0.643c0,0.543-0.371,0.777-0.629,0.777
	c-0.186,0-0.272-0.086-0.321-0.246c-0.049-0.174-0.111-0.272-0.271-0.272c-0.457,0-1.11,1.147-1.518,2.099
	c-0.272,0.666-0.556,1.469-0.84,2.456c-0.432,0.024-0.802,0.062-1.099,0.099c0.531-1.493,1.21-3.813,1.309-4.69
	c0.012-0.16-0.05-0.222-0.161-0.222h-0.704L447.682,139.201z"/>
<path fill="#999999" d="M460.911,142.99c-0.506,1.012-1.283,1.529-2.012,1.529c-0.753,0-0.728-0.679-0.419-1.48
	c0.358-0.963,0.753-1.976,1.062-2.826c0.148-0.383,0.087-0.729-0.272-0.729c-1.023,0-2.258,1.925-2.739,3.271
	c-0.161,0.419-0.345,0.877-0.555,1.617c-0.407,0.013-0.827,0.05-1.111,0.086c0.457-1.209,1.173-3.406,1.396-4.245
	c0.086-0.333,0.098-0.729-0.297-0.729c-0.838,0-2.098,1.654-2.69,3.259c-0.173,0.444-0.346,0.925-0.556,1.629
	c-0.382,0.013-0.803,0.05-1.085,0.086c0.629-1.689,1.271-3.851,1.444-4.715c0.037-0.185,0-0.246-0.173-0.246l-0.715,0.012l0.11-0.32
	c0.567-0.062,1.444-0.148,2.012-0.297c-0.173,0.593-0.433,1.58-0.618,2.124c0.643-0.927,1.58-2.124,2.839-2.124
	c0.839,0,0.864,0.741,0.641,1.457c-0.061,0.222-0.11,0.382-0.184,0.617c0.641-0.95,1.629-2.074,2.851-2.074
	c0.309,0,0.494,0.1,0.617,0.234c0.321,0.334,0.148,1.025,0,1.421c-0.333,0.938-0.888,2.332-1.099,2.986
	c-0.061,0.21-0.061,0.383,0.112,0.383c0.345,0,0.901-0.556,1.209-1.186L460.911,142.99z"/>
<path fill="#999999" d="M465.882,143.052c-0.605,0.912-1.617,1.456-2.654,1.456c-1.036,0-1.593-0.629-1.593-1.715
	c0-1.197,0.568-2.543,1.604-3.333c0.494-0.382,1.05-0.568,1.618-0.568c1.036,0,1.382,0.631,1.382,1.26
	c0,0.579-0.444,0.9-0.877,1.098c-0.641,0.297-1.814,0.557-2.518,0.643c-0.049,0.234-0.099,0.567-0.099,0.852
	c0,0.716,0.259,1.246,0.95,1.246c0.852,0,1.531-0.556,1.95-1.555h0.185L465.882,143.052z M464.709,139.263
	c-0.494,0-1.296,0.48-1.79,2.233c0.543-0.062,1.333-0.26,1.691-0.42c0.457-0.233,0.691-0.616,0.691-1.099
	c0-0.443-0.209-0.715-0.58-0.715H464.709z"/>
<path fill="#999999" d="M467.138,139.201c0.606-0.05,1.383-0.148,1.901-0.31c-0.074,0.494-0.332,1.482-0.481,2.074h0.05
	c0.69-1.396,1.308-2.074,2.024-2.074c0.457,0,0.617,0.383,0.617,0.643c0,0.543-0.37,0.777-0.63,0.777
	c-0.186,0-0.271-0.086-0.321-0.246c-0.048-0.174-0.11-0.272-0.271-0.272c-0.457,0-1.111,1.147-1.519,2.099
	c-0.272,0.666-0.555,1.469-0.839,2.456c-0.432,0.024-0.803,0.062-1.099,0.099c0.53-1.493,1.209-3.813,1.308-4.69
	c0.013-0.16-0.049-0.222-0.161-0.222h-0.703L467.138,139.201z"/>
<path fill="#999999" d="M472.271,136.189c0.813-0.012,1.654-0.087,2.123-0.21c-0.259,0.642-0.654,1.815-1.233,3.802
	c-0.556,1.901-0.914,3.135-1.05,3.752c-0.062,0.246-0.025,0.383,0.124,0.383c0.308,0,0.876-0.531,1.197-1.198l0.247,0.26
	c-0.53,1.036-1.308,1.542-2.011,1.542c-0.741,0-0.692-0.69-0.469-1.443c0.284-0.963,0.568-1.863,0.962-3.222
	c0.555-1.887,0.741-2.579,0.877-3.099c0.037-0.172-0.014-0.222-0.161-0.222l-0.728-0.012L472.271,136.189z"/>
<path fill="#999999" d="M476.158,138.867c-0.024,0.976,0.124,3.309,0.186,4.407c0.395-0.766,0.839-1.63,1.345-2.544
	c0.605-1.074,1.221-1.863,2.197-1.887l0.037,0.295c-0.567,0.136-1.247,1.013-1.802,1.864c-0.777,1.233-1.604,2.728-2.247,3.949
	c-0.938,1.777-1.542,2.37-2.357,2.37c-0.617,0-0.876-0.42-0.876-0.802c0-0.408,0.309-0.63,0.555-0.63
	c0.198,0,0.321,0.111,0.383,0.284c0.073,0.271,0.197,0.406,0.382,0.406c0.469,0,0.925-0.555,1.605-1.95
	c-0.124-0.135-0.161-0.394-0.186-0.689c-0.048-1.433-0.221-3.519-0.308-4.174c-0.037-0.245-0.148-0.296-0.975-0.271l0.098-0.333
	C474.775,139.139,475.627,139.027,476.158,138.867z"/>
<path fill="#999999" d="M486.128,138.707h-1.432v4.073c0,0.566,0.209,1.036,0.839,1.036c0.297,0,0.493-0.062,0.716-0.148l0.05,0.642
	c-0.187,0.075-0.568,0.173-0.95,0.173c-1.383,0-1.432-0.949-1.432-2.098v-3.678h-1.234v-0.667h1.234v-1.518l0.777-0.271v1.789h1.432
	V138.707z"/>
<path fill="#999999" d="M487.521,135.077h0.777v4.026h0.025c0.334-0.692,1.036-1.212,1.962-1.212c1.691,0,2.147,1.125,2.147,2.679
	v3.765h-0.777v-3.752c0-1.086-0.21-2.023-1.493-2.023c-1.383,0-1.864,1.309-1.864,2.406v3.369h-0.777V135.077z"/>
<path fill="#999999" d="M498.601,144.137c-0.542,0.224-1.245,0.346-1.826,0.346c-2.085,0-2.862-1.406-2.862-3.294
	c0-1.926,1.061-3.297,2.653-3.297c1.776,0,2.505,1.433,2.505,3.124v0.394h-4.308c0,1.334,0.717,2.407,2.074,2.407
	c0.567,0,1.395-0.234,1.764-0.47V144.137z M498.22,140.744c0-1.1-0.446-2.185-1.605-2.185c-1.147,0-1.852,1.147-1.852,2.185H498.22z
	"/>
<path fill="#999999" d="M507.462,144.335h-2.938v-1.11H504.5c-0.371,0.9-1.223,1.258-2.099,1.258c-1.655,0-2.259-0.862-2.259-2.11
	v-4.467h3.11v3.702c0,0.371,0,0.877,0.543,0.877c0.557,0,0.557-0.506,0.557-0.877v-3.702h3.109V144.335z"/>
<path fill="#999999" d="M514.556,144.162c-0.692,0.223-1.383,0.32-2.309,0.32c-2.604,0-3.986-1.258-3.986-3.479
	c0-2.159,1.382-3.246,3.986-3.246c0.926,0,1.616,0.087,2.259,0.271v1.9c-0.383-0.173-0.84-0.32-1.394-0.32
	c-0.927,0-1.544,0.48-1.544,1.443c0,1,0.617,1.58,1.544,1.58c0.554,0,1.011-0.123,1.443-0.383V144.162z"/>
<path fill="#999999" d="M518.614,137.226h-3.11v-2.148h3.11V137.226z M515.503,137.905h3.11v6.43h-3.11V137.905z"/>
<path fill="#999999" d="M520.13,135.077h0.777v4.026h0.024c0.11-0.311,0.729-1.212,1.962-1.212c1.853,0,2.593,1.383,2.593,3.297
	c0,1.863-0.864,3.294-2.593,3.294c-0.899,0-1.541-0.346-1.962-1.147h-0.024v1h-0.777V135.077z M522.772,138.56
	c-1.419,0-1.864,1.481-1.864,2.629s0.48,2.628,1.864,2.628c1.481,0,1.863-1.407,1.863-2.628
	C524.635,139.966,524.253,138.56,522.772,138.56z"/>
<path fill="#999999" d="M529.521,137.892c2.035,0,2.937,1.58,2.937,3.297c0,1.715-0.901,3.294-2.937,3.294
	c-2.037,0-2.939-1.579-2.939-3.294C526.582,139.472,527.484,137.892,529.521,137.892z M529.521,143.816
	c1.357,0,2.085-1.172,2.085-2.628c0-1.457-0.728-2.629-2.085-2.629c-1.359,0-2.087,1.172-2.087,2.629
	C527.434,142.645,528.162,143.816,529.521,143.816z"/>
<path fill="#999999" d="M536.379,137.892c2.037,0,2.938,1.58,2.938,3.297c0,1.715-0.9,3.294-2.938,3.294
	c-2.036,0-2.938-1.579-2.938-3.294C533.442,139.472,534.343,137.892,536.379,137.892z M536.379,143.816
	c1.357,0,2.087-1.172,2.087-2.628c0-1.457-0.729-2.629-2.087-2.629s-2.085,1.172-2.085,2.629
	C534.294,142.645,535.022,143.816,536.379,143.816z"/>
<path fill="#999999" d="M540.784,135.077h0.778v5.542l2.813-2.579h1l-3.073,2.79l3.443,3.505h-1.074l-3.109-3.233v3.233h-0.778
	V135.077z"/>
<path fill="#999999" d="M546.47,143.422c0.47,0.234,1.039,0.395,1.643,0.395c0.74,0,1.395-0.406,1.395-1.123
	c0-1.492-3.023-1.259-3.023-3.085c0-1.247,1.012-1.717,2.049-1.717c0.333,0,0.999,0.076,1.556,0.284l-0.075,0.679
	c-0.406-0.185-0.963-0.295-1.395-0.295c-0.802,0-1.358,0.245-1.358,1.049c0,1.173,3.099,1.024,3.099,3.085
	c0,1.334-1.247,1.789-2.196,1.789c-0.606,0-1.21-0.072-1.765-0.295L546.47,143.422z"/>
<path fill="#999999" d="M554.467,138.707h-1.432v4.073c0,0.566,0.209,1.036,0.84,1.036c0.296,0,0.493-0.062,0.716-0.148l0.049,0.642
	c-0.185,0.075-0.567,0.173-0.949,0.173c-1.384,0-1.433-0.949-1.433-2.098v-3.678h-1.234v-0.667h1.234v-1.518l0.777-0.271v1.789
	h1.432V138.707z"/>
<path fill="#999999" d="M558.318,137.892c2.035,0,2.937,1.58,2.937,3.297c0,1.715-0.901,3.294-2.937,3.294
	c-2.038,0-2.938-1.579-2.938-3.294C555.379,139.472,556.28,137.892,558.318,137.892z M558.318,143.816
	c1.356,0,2.085-1.172,2.085-2.628c0-1.457-0.729-2.629-2.085-2.629c-1.359,0-2.087,1.172-2.087,2.629
	C556.231,142.645,556.958,143.816,558.318,143.816z"/>
<path fill="#999999" d="M562.721,139.447c0-0.689,0-0.95-0.051-1.407h0.779v1.211h0.024c0.283-0.704,0.813-1.359,1.616-1.359
	c0.186,0,0.407,0.038,0.543,0.076v0.814c-0.159-0.05-0.37-0.075-0.567-0.075c-1.234,0-1.568,1.382-1.568,2.518v3.11h-0.776V139.447z
	"/>
<path fill="#999999" d="M570.829,144.137c-0.543,0.224-1.247,0.346-1.826,0.346c-2.087,0-2.864-1.406-2.864-3.294
	c0-1.926,1.062-3.297,2.653-3.297c1.778,0,2.506,1.433,2.506,3.124v0.394h-4.307c0,1.334,0.715,2.407,2.072,2.407
	c0.568,0,1.396-0.234,1.766-0.47V144.137z M570.447,140.744c0-1.1-0.445-2.185-1.605-2.185c-1.146,0-1.851,1.147-1.851,2.185
	H570.447z"/>
<text transform="matrix(1.0007 0 0 1 39.3594 142.7812)"><tspan x="0" y="0" fill="#0B3D91" font-family="'FrutigerLTStd-Light'" font-size="34.4075">the</tspan><tspan x="47.792" y="0" fill="#FFD400" font-family="'FrutigerLTStd-UltraBlack'" font-size="34.4075">uci</tspan><tspan x="102.602" y="0" fill="#0B3D91" font-family="'FrutigerLTStd-Light'" font-size="34.4075">bookstore</tspan></text>
<g>
	<defs>
		<rect id="SVGID_1_" x="118.111" y="72.825" width="91.898" height="40.339"/>
	</defs>
	<clipPath id="SVGID_12_">
		<use xlink:href="#SVGID_1_"  overflow="visible"/>
	</clipPath>
	<path clip-path="url(#SVGID_12_)" fill="#0B3D91" d="M175.103,80.02c-0.519,0.837,1.677,2.142,0.197,3.748
		c3.939-0.776,3.951-0.786,3.951-0.786S175.52,79.479,175.103,80.02"/>
	<path clip-path="url(#SVGID_12_)" fill="#0B3D91" d="M188.818,77.022c0,0-1.872,0.636,8.981,0.199
		c-0.681-1.2,3.169-3.994,2.658-4.396c-0.322-0.266-6.878,2.3-10.006,3.542c-6.666,0.048-12.744,0.521-18.314,1.379
		c5.432-0.608,11.173-0.892,17.212-0.94C189.015,76.944,188.818,77.022,188.818,77.022"/>
	<path clip-path="url(#SVGID_12_)" fill="#0B3D91" d="M127.585,101.087c11.547-12.815,22.49-19.935,44.552-23.341
		c-23.288,2.606-41.101,10.989-54.042,30.386v2.128c8.696-5.586,19.159-11.837,44.017-12.413
		C142.683,97.435,134.822,98.717,127.585,101.087"/>
</g>
<path fill="#0B3D91" d="M197.5,97.977c2.703-1.356,8.132-17.35,12.213-21.499c-12.359,11.86-5.748,17.178-26.748,21.276
	C195.319,97.599,194.847,99.305,197.5,97.977"/>
<path fill="#0B3D91" d="M209.712,76.478c0.102-0.096,0.192-0.189,0.297-0.284C209.909,76.279,209.814,76.374,209.712,76.478"/>
<path fill="#0B3D91" d="M120.224,110.282v1.505c8.697-5.586,24.127-13.02,48.79-13.02
	C137.187,96.839,120.224,110.282,120.224,110.282"/>
<path fill="#0B3D91" d="M122.358,111.654v1.51c8.698-5.586,25.575-13.571,53.474-13.571
	C143.249,97.524,122.358,111.654,122.358,111.654"/>
<path fill="#0B3D91" d="M202.243,96.016c0.001,0.688,0.627,0.247,0.864,0.888c-3.046,2.61-6.872,4.056-10.85,4.33
	c-0.273-0.628,0.486-0.739,0.012-1.236c-0.343-0.361-9.093-0.231-9.093-0.231c6.301,0.335,7.664,1.491,7.664,1.491
	s-0.666,1.411,0.37,1.411c4.87-0.007,10.501-2.226,13.649-5.45c0.719-0.739-0.711-1.279-0.711-1.279s1.537-3.872,5.106-7.389
	C206.03,90.935,202.243,95.521,202.243,96.016"/>
<linearGradient id="SVGID_13_" gradientUnits="userSpaceOnUse" x1="673.1753" y1="112.9639" x2="852.8462" y2="112.9639">
	<stop  offset="0" style="stop-color:#5DC1ED"/>
	<stop  offset="1" style="stop-color:#008EAF"/>
</linearGradient>
<path fill="url(#SVGID_13_)" d="M673.175,168.998c0,0,40.876-49.693,113.175-76.94c26.105-9.837,47.227-10.93,61.771-9.592
	c1.418-7.659,3.164-17.095,4.725-25.537C734.489,62.509,673.175,168.998,673.175,168.998z"/>
<linearGradient id="SVGID_14_" gradientUnits="userSpaceOnUse" x1="851.7729" y1="92.2793" x2="915.5386" y2="92.2793">
	<stop  offset="0" style="stop-color:#5DC1ED"/>
	<stop  offset="1" style="stop-color:#008EAF"/>
</linearGradient>
<path fill="url(#SVGID_14_)" d="M912.058,95.176c0.637-1.201,1.225-2.426,1.731-3.664c0.51-1.242,0.949-2.495,1.262-3.761
	c0.31-1.266,0.494-2.541,0.487-3.783c-0.016-1.246-0.209-2.442-0.657-3.531c-0.427-1.04-1.15-1.897-2.127-2.534
	c-0.972-0.636-2.174-1.049-3.444-1.29c-2.56-0.474-5.331-0.348-8.058-0.005c-2.735,0.358-5.472,0.935-8.167,1.665
	c-2.701,0.731-5.381,1.568-8.02,2.524c-2.646,0.953-5.263,1.983-7.849,3.091c-2.579,1.122-5.133,2.306-7.651,3.559
	c-1.26,0.622-2.506,1.277-3.734,1.952c-1.229,0.678-2.455,1.367-3.608,2.126c-1.135,0.775-2.297,1.608-3.43,2.436l-3.401,2.53
	c-0.576,0.42-1.148,0.843-1.774,1.247c-0.317,0.199-0.641,0.397-1.035,0.573c-0.196,0.085-0.41,0.17-0.689,0.221
	c-0.036,0.008-0.077,0.013-0.12,0.016l51.364,9.709c1.593-1.986,3.132-4.005,4.576-6.079
	C909.292,99.904,910.777,97.581,912.058,95.176z"/>
<path fill="none" d="M900.976,33.242c-1.303-0.221-2.597-0.33-3.853-0.33c-4.29,0.001-8.334,1.309-12.019,3.888
	c-1.032,0.724-1.981,1.531-2.857,2.398c10.532,2.007,23.918,4.551,34.372,6.54c-0.5-1.126-1.082-2.222-1.765-3.274
	C911.541,37.347,906.868,34.242,900.976,33.242z"/>
<path fill="#0E223D" d="M885.105,36.8c3.685-2.579,7.729-3.887,12.019-3.888c1.256,0,2.55,0.109,3.853,0.33
	c5.892,1,10.564,4.104,13.879,9.222c0.683,1.053,1.265,2.148,1.765,3.274c2.153,0.41,4.179,0.796,6.033,1.148
	c-0.778-2.659-1.961-5.227-3.546-7.669c-4.152-6.394-9.755-10.149-17.128-11.486c-1.683-0.301-3.354-0.455-4.96-0.454
	c-5.39,0.002-10.452,1.748-15.045,5.188c-2.177,1.633-4.065,3.51-5.651,5.605c1.83,0.348,3.821,0.728,5.925,1.128
	C883.124,38.331,884.073,37.523,885.105,36.8z"/>
<path fill="#FFDD6C" d="M931.496,48.734c-0.478-0.156-0.72-0.298-1.717-0.49c-1.838-0.351-4.278-0.815-7.126-1.357
	c-1.854-0.353-3.88-0.738-6.033-1.148c-10.454-1.989-23.84-4.533-34.372-6.54c-2.104-0.4-4.095-0.78-5.925-1.128
	c-6.15-1.174-10.488-2.005-11.262-2.162c-3.224-0.657-3.807,2.444-3.807,2.444l-10.489,55.395c0.073-0.117,0.143-0.234,0.213-0.351
	c0.802-1.266,1.714-2.393,2.654-3.488c0.936-1.093,1.932-2.156,2.938-3.166c2.014-2.027,4.089-3.974,6.198-5.883
	c2.112-1.905,4.258-3.774,6.457-5.581c4.383-3.634,8.934-7.076,13.7-10.239c4.764-3.157,9.741-6.054,15.064-8.361
	c5.325-2.255,10.806-3.971,16.397-5.225c2.792-0.638,5.604-1.163,8.432-1.566c2.828-0.405,5.667-0.714,8.531-0.861
	C932.065,48.991,931.802,48.952,931.496,48.734z"/>
<path fill="#0E223D" d="M900.382,57.759c-18.044,7.526-39.661,26.377-44.877,31.885c-5.212,5.507-5.124,7.402-4.084,7.99
	c1.04,0.586,3.376-1.684,10.223-6.383c6.848-4.7,49.341-25.761,55.025-11.046c2.824,7.312-3.045,18.099-11.072,28.464
	c0,0,10.861,2.176,14.027,2.651c3.071,0.426,3.916-0.242,4.345-2.507c0.428-2.262,10.174-53.719,10.468-55.308
	c0.292-1.591-0.219-3.546-2.028-3.668C926.625,50.248,913.847,52.141,900.382,57.759z M889.269,74.866
	c-0.948,0.419-2.062-0.006-2.484-0.957c-0.418-0.95,4.654-3.197,5.075-2.25C892.281,72.61,890.221,74.441,889.269,74.866z
	 M901.379,67.531c-0.011,0.778-0.12,1.522-0.296,2.22c0.01-0.115,0.019-0.229,0.021-0.348c0.051-3.123-1.731-3.3-2.419-2.321
	c-0.57,0.809,0.478,3.531,0.776,5.178c-0.158,0.216-0.374,0.417-0.374,0.417s-2.267-6.832-1.37-8.102
	C898.607,63.31,901.447,63.487,901.379,67.531z"/>
<path fill="#008EAF" d="M768.276,162.725l-0.05-3.508l-12.251,0.003c-1.81,0.025-3.338-0.354-4.581-1.486
	c-1.243-1.132-1.88-2.595-1.904-4.388c-0.026-1.795,0.573-3.277,1.793-4.447c1.224-1.166,2.729-1.939,4.518-1.965l12.252,0.002
	l-0.051-3.411h-12.423c-2.589,0.039-4.798,1.146-6.616,2.967c-1.822,1.822-2.712,4.02-2.676,6.592
	c0.018,1.264,0.264,2.41,0.737,3.438c0.355,0.846,0.991,1.56,1.902,2.699h-7.916l0.053,3.505H768.276z"/>
<path fill="#008EAF" d="M757.241,141.756c3.117-0.044,5.721-1.225,7.81-3.538c2.092-2.312,3.111-5.072,3.064-8.284
	c-0.031-2.294-0.512-4.376-1.429-6.243c-0.971-2.048-2.346-3.533-4.13-4.447l-2.198,2.338c1.406,0.506,2.536,1.717,3.389,3.629
	c0.711,1.644,1.081,3.384,1.105,5.218c0.032,2.157-0.7,4.009-2.189,5.556c-1.493,1.546-3.316,2.347-5.476,2.4
	c-2.196,0.057-4.078-0.728-5.639-2.343c-1.563-1.62-2.358-3.565-2.392-5.832c-0.062-4.543,1.975-7.166,6.115-7.87l0.037,0.037
	l0.186,12.729l2.749-0.04l-0.237-16.515c-0.503-0.015-0.986-0.022-1.443-0.015c-3.811,0.054-6.604,1.256-8.382,3.597
	c-1.508,1.973-2.252,4.68-2.225,8.116c0.049,3.193,1.167,5.915,3.354,8.178C751.5,140.692,754.142,141.801,757.241,141.756z"/>
<path fill="#008EAF" d="M768.36,166.17c-0.042-1.335-0.063-2.066-0.063-2.205l-3.132,0.046c0.004,0.297,0.01,0.723,0.013,1.271
	c0.012,0.555,0.019,0.977,0.021,1.278c0.032,2.269-0.572,3.857-1.82,4.771c-0.245,0.191-0.677,0.386-1.294,0.585
	c-0.616,0.207-1.084,0.312-1.402,0.315h-10.76v-8.267h-3.511v8.267h-5.426l0.051,3.389l20.723,0.002
	c1.468-0.023,2.789-0.474,3.967-1.367c1.182-0.888,1.953-2.03,2.326-3.438c0.169-0.624,0.285-1.367,0.344-2.24
	C768.41,167.955,768.399,167.15,768.36,166.17z"/>
<polygon fill="#0E223D" points="798.436,118.016 798.436,138.472 790.805,138.472 790.805,118.016 773.789,118.016 773.789,175.232 
	790.805,175.232 790.805,153.562 798.436,153.562 798.436,175.232 815.456,175.232 815.456,118.016 "/>
<path fill="#0E223D" d="M837.002,118.016v57.217h-17.015v-57.217H837.002z"/>
<path fill="#0E223D" d="M873.659,118.016h17.02v33.995c0,2.658,0.428,4.427,1.28,5.304c0.852,0.878,2.532,1.319,5.049,1.319h21.937
	v16.599h-25.585c-6.201,0-11.035-1.808-14.498-5.431c-3.471-3.618-5.202-8.64-5.202-15.064V118.016z"/>
<path fill="#0E223D" d="M875.386,169.771c-2.768-3.529-3.395-6.543-3.977-11.138h-6.256c-2.514,0-4.2-0.441-5.051-1.319
	c-0.851-0.877-1.279-2.646-1.279-5.304v-33.995h-17.021v36.722c0,6.425,1.734,11.446,5.202,15.064c3.462,3.623,8.3,5.431,14.5,5.431
	h21.104C882.609,175.232,878.156,173.297,875.386,169.771z"/>
<path fill="#0E223D" d="M726.749,183.357h8.627v1.031h-7.504v3.676h7.23v1.033h-7.23v4.073h7.625v1.031h-8.748V183.357z"/>
<path fill="#0E223D" d="M745.383,183.357h1.213l-4.798,10.845h-1.215l-4.845-10.845h1.304l4.192,9.57L745.383,183.357z"/>
<path fill="#0E223D" d="M747.551,183.357h8.627v1.031h-7.503v3.676h7.23v1.033h-7.23v4.073h7.624v1.031h-8.748V183.357z"/>
<path fill="#0E223D" d="M757.954,183.357h5.908c1.84,0,3.524,0.651,3.524,2.931c0,1.155-0.712,2.31-2.127,2.629v0.028
	c1.535,0.243,1.854,1.23,1.928,3.008c0.032,0.684,0.122,2.007,0.383,2.249h-1.217c-0.196-0.229-0.273-1.031-0.288-2.218
	c-0.031-1.914-0.76-2.554-2.629-2.554h-4.359v4.771h-1.123V183.357z M759.077,188.4h4.756c1.23,0,2.338-0.457,2.338-2.112
	c0-1.595-1.199-1.899-2.231-1.899h-4.862V188.4z"/>
<path fill="#0E223D" d="M772.669,189.646l-4.875-6.289h1.457l3.979,5.162l3.98-5.162h1.458l-4.875,6.289v4.556h-1.125V189.646z"/>
<path fill="#0E223D" d="M782.661,184.389h-4.253v-1.031h9.631v1.031h-4.253v9.813h-1.125V184.389z"/>
<path fill="#0E223D" d="M789.009,183.357h1.122v4.586h7.839v-4.586h1.125v10.845h-1.125v-5.225h-7.839v5.225h-1.122V183.357z"/>
<path fill="#0E223D" d="M801.217,183.357h1.123v10.845h-1.123V183.357z"/>
<path fill="#0E223D" d="M804.466,183.357h1.351l7.579,9.266h0.033v-9.266h1.123v10.845h-1.308l-7.624-9.266h-0.031v9.266h-1.123
	V183.357z"/>
<path fill="#0E223D" d="M826.472,192.151h-0.028c-1.109,1.597-2.386,2.323-4.514,2.323c-3.676,0-5.681-2.308-5.681-5.695
	c0-3.282,2.204-5.696,5.803-5.696c3.022,0,4.951,1.703,5.241,3.706h-1.218c-0.439-1.839-2.078-2.673-4.023-2.673
	c-2.962,0-4.587,1.808-4.587,4.663c0,2.917,1.487,4.663,4.374,4.663c3.25,0,4.284-1.854,4.618-3.796h-3.98v-1.035h5.013v5.591
	h-0.866L826.472,192.151z"/>
<path fill="#0E223D" d="M833.622,183.357h2.947v6.227c0,1.065,0.046,2.855,2.749,2.855c2.705,0,2.749-1.79,2.749-2.855v-6.227h2.948
	v6.955c0,1.217-0.152,4.193-5.697,4.193c-5.546,0-5.696-2.977-5.696-4.193V183.357z"/>
<path fill="#0E223D" d="M856.113,187.456c-0.272-1.562-1.563-2.338-3.099-2.338c-2.795,0-3.387,2.188-3.387,3.661
	s0.592,3.66,3.387,3.66c1.429,0,2.812-0.684,3.099-2.4h3.206c-0.364,3.16-2.962,4.467-6.411,4.467c-3.948,0-6.409-1.703-6.409-5.727
	c0-4.025,2.461-5.727,6.409-5.727c2.613,0,5.941,0.668,6.381,4.403H856.113z"/>
<path fill="#0E223D" d="M860.726,183.357h2.948v10.845h-2.948V183.357z"/>
<path fill="#0E223D" d="M873.105,190.738h-3.465v-0.759h3.465v-3.463h0.758v3.463h3.465v0.759h-3.465v3.464h-0.758V190.738z"/>
<path fill="#0E223D" d="M896.873,183.357h1.596l-2.312,10.845h-1.123l1.989-9.371h-0.028l-6.775,9.371h-1.034l-2.779-9.389h-0.03
	l-1.989,9.389h-1.124l2.308-10.845h1.642l2.825,9.432L896.873,183.357z"/>
<path fill="#0E223D" d="M905.996,183.083c3.084,0,5.485,1.867,4.679,5.696c-0.82,3.829-4.024,5.695-7.108,5.695
	c-3.082,0-5.497-1.866-4.678-5.695C899.693,184.95,902.914,183.083,905.996,183.083z M903.794,193.442
	c2.385,0,4.968-1.396,5.666-4.663c0.698-3.266-1.307-4.663-3.692-4.663c-2.384,0-4.966,1.397-5.666,4.663
	C899.405,192.047,901.409,193.442,903.794,193.442z"/>
<path fill="#0E223D" d="M913.586,183.357h5.91c1.838,0,3.389,0.651,2.9,2.931c-0.242,1.155-1.214,2.31-2.686,2.629v0.028
	c1.472,0.243,1.577,1.23,1.274,3.008c-0.106,0.684-0.303,2.007-0.092,2.249h-1.215c-0.152-0.229-0.061-1.031,0.184-2.218
	c0.379-1.914-0.214-2.554-2.082-2.554h-4.359l-1.019,4.771h-1.124L913.586,183.357z M913.634,188.4h4.753
	c1.231,0,2.447-0.457,2.796-2.112c0.334-1.595-0.805-1.899-1.838-1.899h-4.861L913.634,188.4z"/>
<path fill="#0E223D" d="M924.84,183.357h8.627l-0.228,1.031h-7.503l-0.774,3.676h7.229l-0.226,1.033h-7.232l-0.866,4.073h7.626
	l-0.213,1.031h-8.75L924.84,183.357z"/>
<path fill="#0E223D" d="M933.207,192.531h1.308v1.671h-1.308V192.531z"/>
<path fill="#0E223D" d="M674.402,183.657v3.863h0.03c0.201-0.416,0.52-0.717,0.952-0.906c0.436-0.188,0.912-0.282,1.433-0.282
	c0.576,0,1.082,0.107,1.511,0.318c0.429,0.214,0.786,0.5,1.07,0.86c0.283,0.362,0.5,0.778,0.645,1.252
	c0.145,0.472,0.215,0.972,0.215,1.502c0,0.531-0.068,1.032-0.208,1.505c-0.141,0.472-0.352,0.886-0.637,1.236
	c-0.284,0.351-0.642,0.629-1.067,0.831c-0.431,0.202-0.932,0.304-1.499,0.304c-0.184,0-0.39-0.02-0.615-0.057
	c-0.226-0.039-0.45-0.101-0.673-0.189c-0.221-0.085-0.431-0.203-0.629-0.354c-0.197-0.147-0.365-0.335-0.497-0.558h-0.03v1h-1.229
	v-10.326H674.402z M678.821,189.161c-0.092-0.333-0.232-0.631-0.421-0.892c-0.188-0.26-0.429-0.469-0.723-0.62
	c-0.294-0.155-0.64-0.232-1.035-0.232c-0.414,0-0.765,0.083-1.053,0.246c-0.291,0.164-0.527,0.379-0.71,0.644
	c-0.184,0.263-0.315,0.565-0.398,0.904c-0.081,0.337-0.122,0.678-0.122,1.027c0,0.363,0.043,0.722,0.13,1.06
	c0.088,0.346,0.225,0.646,0.411,0.905c0.189,0.262,0.433,0.47,0.729,0.631c0.301,0.159,0.661,0.239,1.086,0.239
	c0.424,0,0.778-0.084,1.062-0.25c0.286-0.16,0.515-0.379,0.688-0.648c0.175-0.27,0.299-0.579,0.376-0.926
	c0.078-0.346,0.114-0.704,0.114-1.07C678.956,189.833,678.911,189.491,678.821,189.161z"/>
<path fill="#0E223D" d="M681.531,188.712c0.155-0.477,0.387-0.894,0.695-1.245c0.309-0.351,0.688-0.629,1.143-0.83
	c0.453-0.203,0.974-0.305,1.561-0.305c0.598,0,1.121,0.102,1.569,0.305c0.448,0.201,0.826,0.479,1.134,0.83
	c0.309,0.352,0.541,0.769,0.695,1.245c0.155,0.475,0.232,0.99,0.232,1.539s-0.077,1.062-0.232,1.533
	c-0.154,0.473-0.387,0.884-0.695,1.237c-0.308,0.351-0.686,0.626-1.134,0.826c-0.448,0.193-0.972,0.293-1.569,0.293
	c-0.587,0-1.107-0.1-1.561-0.293c-0.455-0.2-0.834-0.476-1.143-0.826c-0.309-0.354-0.54-0.765-0.695-1.237
	c-0.154-0.471-0.229-0.984-0.229-1.533S681.376,189.187,681.531,188.712z M682.783,191.458c0.12,0.354,0.287,0.646,0.499,0.884
	c0.211,0.235,0.459,0.415,0.743,0.542c0.285,0.126,0.586,0.189,0.904,0.189s0.619-0.063,0.903-0.189
	c0.284-0.127,0.533-0.307,0.747-0.542c0.211-0.237,0.377-0.53,0.497-0.884c0.121-0.351,0.182-0.753,0.182-1.207
	c0-0.452-0.061-0.855-0.182-1.207c-0.12-0.352-0.286-0.648-0.497-0.89c-0.214-0.24-0.463-0.425-0.747-0.552
	c-0.284-0.122-0.585-0.186-0.903-0.186s-0.619,0.063-0.904,0.186c-0.284,0.127-0.532,0.312-0.743,0.552
	c-0.212,0.241-0.379,0.538-0.499,0.89c-0.122,0.352-0.182,0.755-0.182,1.207C682.601,190.705,682.661,191.107,682.783,191.458z"/>
<path fill="#0E223D" d="M689.833,188.712c0.153-0.477,0.385-0.894,0.692-1.245c0.308-0.351,0.689-0.629,1.143-0.83
	c0.453-0.203,0.976-0.305,1.562-0.305c0.597,0,1.12,0.102,1.568,0.305c0.447,0.201,0.826,0.479,1.134,0.83
	c0.309,0.352,0.541,0.769,0.696,1.245c0.153,0.475,0.232,0.99,0.232,1.539s-0.079,1.062-0.232,1.533
	c-0.155,0.473-0.388,0.884-0.696,1.237c-0.308,0.351-0.687,0.626-1.134,0.826c-0.448,0.193-0.972,0.293-1.568,0.293
	c-0.587,0-1.109-0.1-1.562-0.293c-0.453-0.2-0.835-0.476-1.143-0.826c-0.308-0.354-0.539-0.765-0.692-1.237
	c-0.155-0.471-0.233-0.984-0.233-1.533S689.677,189.187,689.833,188.712z M691.082,191.458c0.12,0.354,0.287,0.646,0.499,0.884
	c0.213,0.235,0.46,0.415,0.746,0.542c0.282,0.126,0.585,0.189,0.903,0.189c0.316,0,0.62-0.063,0.902-0.189
	c0.285-0.127,0.533-0.307,0.746-0.542c0.211-0.237,0.379-0.53,0.498-0.884c0.12-0.351,0.181-0.753,0.181-1.207
	c0-0.452-0.061-0.855-0.181-1.207c-0.119-0.352-0.287-0.648-0.498-0.89c-0.213-0.24-0.461-0.425-0.746-0.552
	c-0.282-0.122-0.586-0.186-0.902-0.186c-0.318,0-0.621,0.063-0.903,0.186c-0.286,0.127-0.533,0.312-0.746,0.552
	c-0.212,0.241-0.379,0.538-0.499,0.89s-0.181,0.755-0.181,1.207C690.901,190.705,690.961,191.107,691.082,191.458z"/>
<path fill="#0E223D" d="M699.606,183.657v6.117l3.412-3.268h1.649l-2.964,2.718l3.18,4.759h-1.561l-2.56-3.903l-1.157,1.067v2.836
	h-1.229v-10.326H699.606z"/>
<path fill="#0E223D" d="M706.749,192.312c0.117,0.187,0.269,0.337,0.458,0.446c0.187,0.112,0.398,0.192,0.634,0.239
	c0.237,0.049,0.482,0.075,0.732,0.075c0.191,0,0.396-0.016,0.606-0.046c0.213-0.029,0.407-0.08,0.586-0.158
	c0.178-0.078,0.326-0.19,0.441-0.341c0.115-0.149,0.174-0.339,0.174-0.569c0-0.318-0.122-0.559-0.362-0.725
	c-0.241-0.162-0.542-0.294-0.903-0.397c-0.361-0.101-0.755-0.193-1.178-0.274c-0.425-0.08-0.817-0.198-1.18-0.347
	c-0.36-0.149-0.663-0.359-0.902-0.63c-0.243-0.27-0.363-0.646-0.363-1.129c0-0.373,0.084-0.698,0.254-0.969
	c0.168-0.27,0.386-0.487,0.651-0.655c0.264-0.169,0.563-0.296,0.896-0.379c0.331-0.08,0.661-0.122,0.989-0.122
	c0.425,0,0.815,0.036,1.171,0.11c0.357,0.071,0.674,0.196,0.947,0.374c0.274,0.178,0.495,0.42,0.659,0.725
	c0.163,0.304,0.26,0.682,0.289,1.135h-1.229c-0.021-0.242-0.082-0.44-0.188-0.601c-0.107-0.159-0.24-0.287-0.404-0.383
	c-0.165-0.099-0.346-0.167-0.544-0.211c-0.196-0.044-0.396-0.064-0.599-0.064c-0.184,0-0.369,0.015-0.557,0.043
	s-0.358,0.081-0.514,0.152c-0.154,0.073-0.28,0.167-0.373,0.29c-0.1,0.119-0.146,0.276-0.146,0.47c0,0.21,0.073,0.387,0.223,0.526
	c0.15,0.14,0.341,0.256,0.573,0.349c0.232,0.092,0.491,0.167,0.78,0.232c0.289,0.061,0.578,0.126,0.866,0.194
	c0.31,0.066,0.609,0.149,0.905,0.246c0.293,0.094,0.553,0.224,0.779,0.383c0.226,0.16,0.41,0.359,0.549,0.601
	c0.141,0.241,0.211,0.539,0.211,0.896c0,0.454-0.095,0.826-0.282,1.129c-0.188,0.299-0.435,0.537-0.735,0.722
	c-0.305,0.184-0.647,0.311-1.027,0.382c-0.382,0.073-0.761,0.109-1.136,0.109c-0.413,0-0.809-0.043-1.187-0.13
	c-0.373-0.086-0.71-0.229-0.999-0.427s-0.518-0.456-0.692-0.781c-0.174-0.32-0.271-0.716-0.29-1.176h1.229
	C706.572,191.895,706.634,192.124,706.749,192.312z"/>
<path fill="#0E223D" d="M714.921,192.378v1.605h-1.605v-1.605H714.921z"/>
<path fill="#0E223D" d="M718.941,192.378v1.605h-1.605v-1.605H718.941z"/>
<path fill="#0E223D" d="M722.96,192.378v1.605h-1.604v-1.605H722.96z"/>
</svg>
